<?xml version="1.0" encoding="UTF-8"?><svg xmlns="http://www.w3.org/2000/svg" viewBox="0 0 500 500"><defs><style>.cls-1{fill:#f2f1f1;}.cls-2{fill:#804099;}</style></defs><g id="Layer_2"><path class="cls-1" d="M8.65,316.1h2.23c.25-2.21.74-4.11,1.49-5.7.74-1.6,1.61-3.12,2.6-4.59.99-4.66,2.6-9.62,4.83-14.89,2.23-5.27,3.71-10.35,4.46-15.25.74,0,1.06-.3.93-.92-.12-.61.19-.92.93-.92,1.24-4.65,2.79-8.94,4.64-12.86,1.86-3.92,3.53-8.09,5.01-12.5,0-.49-.31-.67-.93-.55-.62.13-.81-.06-.56-.55,1.98-.98,2.79-2.02,2.41-3.12-.37-1.1-1.24-2.33-2.6-3.68-1.36-1.34-2.79-2.69-4.27-4.04-1.49-1.34-2.36-2.76-2.6-4.23-.99.49-1.98.49-2.97,0-.99-.49-1.98-.86-2.97-1.1.74-3.43.62-6.49-.37-9.19-.74,0-1.17.25-1.3.74-.12.49-.56.74-1.3.74-1.24-1.47-1.54-3.06-.93-4.78.62-1.71.19-3.06-1.3-4.04.25-.74.44-1.16.56-1.29.13-.12.44-.43.93-.92-.24-.98-.56-1.22-.93-.74-.37.49-.56.25-.56-.74,1.73-2.69,3.9-4.53,6.5-5.51,2.6-.98,5.63-1.84,9.1-2.57,0-.74-.25-1.22-.74-1.47-.5-.24-.62-.74-.37-1.47,5.94.49,10.89-.3,14.85-2.39,3.96-2.08,8.29-3.73,13-4.96,1.49-6.62,3.84-12.31,7.06-17.09,3.22-4.78,5.94-10.23,8.17-16.36-.5-.24-.93-.3-1.3-.18-.37.13-.56-.3-.56-1.29,0-.74.31-1.1.93-1.1s1.3-.12,2.04-.37c6.19-11.76,11.88-23.76,17.08-36.02,5.2-12.25,10.4-24.63,15.6-37.12,0-.49.12-.79.37-.92.24-.12.12-.3-.37-.55,4.7-9.31,9.9-18.93,15.6-28.85,5.69-9.92,9.9-21.01,12.63-33.26,2.47-1.96,5.2-3.31,8.17-4.04s6.06-1.71,9.28-2.94c1.24,1.23,2.66,1.6,4.27,1.1,1.61-.49,3.03.13,4.27,1.84,1.24-.49,2.1-.74,2.6-.74s1.36.25,2.6.74c.49.25.74.98.74,2.21,1.73-.49,2.91-.86,3.53-1.1.62-.24,1.54-.24,2.79,0,.49,1.23,1.3,2.45,2.41,3.68,1.11,1.23,2.41,1.72,3.9,1.47l.74-.74c.24-.24.49-.37.74-.37,1.49.49,2.41,1.47,2.79,2.94s.68,3.07.93,4.78c2.23,2.45,3.53,5.21,3.9,8.27.37,3.07,1.67,5.58,3.9,7.53-.5.49-.74.92-.74,1.29s-.25.8-.74,1.29c-.25.49-.19.86.19,1.1.37.25.56.61.56,1.1-.99,1.47-1.49,3.37-1.49,5.7s-.62,4.11-1.86,5.33c.49,2.94.12,5.82-1.11,8.64-1.24,2.82-2.11,5.94-2.6,9.37-.25.74-.19,1.29.19,1.65.37.37.43.8.19,1.29-.5,1.96-1.61,3.43-3.34,4.41-1.73.98-2.97,2.57-3.71,4.78-.25.74-.31,1.53-.19,2.39.12.86.06,1.65-.19,2.39-.74,2.7-1.98,5.09-3.71,7.17-1.73,2.08-2.73,4.23-2.97,6.43-1.98,2.21-3.22,5.09-3.71,8.64-.5,3.55-1.86,6.31-4.09,8.27-.74.49-.74.92,0,1.29s.74.68,0,.92c-2.73,2.94-4.83,5.94-6.31,9-1.49,3.07-3.22,6.19-5.2,9.37,4.21-.24,8.73-1.04,13.56-2.39,4.83-1.34,9.1-3,12.81-4.96,1.98-2.21,4.39-4.16,7.24-5.88,2.84-1.71,5.81-3.37,8.91-4.96,3.09-1.59,6.13-3.24,9.1-4.96,2.97-1.71,5.57-3.8,7.8-6.25,1.24.25,2.04.13,2.41-.37.37-.49.93-.61,1.67-.37.99-.24,1.49-.98,1.49-2.21,11.39-7.1,23.15-13.78,35.28-20.03,12.13-6.25,24.14-12.68,36.02-19.3.49-1.96,1.36-3.31,2.6-4.04,1.24-.74,2.6-1.34,4.09-1.84.24-2.45,1.3-4.41,3.16-5.88s3.96-2.51,6.31-3.12c2.35-.61,4.89-.92,7.61-.92s5.2.13,7.43.37c.49,1.96,1.42,3.31,2.79,4.04,1.36.74,2.72,1.47,4.09,2.21,1.36.74,2.54,1.72,3.53,2.94.99,1.23,1.49,3.07,1.49,5.51.49.49.99.86,1.49,1.1.49.25.99.61,1.49,1.1,0,2.45.62,4.23,1.86,5.33,1.24,1.1,2.23,2.39,2.97,3.86,0,.74-.25,1.29-.74,1.65-.5.37-.5.92,0,1.65.24.49.8.43,1.67-.18.86-.61,1.54-.55,2.04.18-1.24,2.7-2.54,5.58-3.9,8.64-1.36,3.07-3.28,5.58-5.76,7.53v2.94c-2.23,2.21-4.58,4.29-7.06,6.25-2.48,1.96-4.46,4.29-5.94,6.98-4.21,2.21-7.98,4.84-11.33,7.9-3.34,3.07-7.49,5.46-12.44,7.17-.25.74-.56,1.47-.93,2.21s-.81,1.35-1.3,1.84c-2.48.74-4.64,1.65-6.5,2.76s-3.41,2.64-4.64,4.59c-4.46,1.47-8.05,3.92-10.77,7.35-11.88,5.88-23.27,12.01-34.17,18.38-10.9,6.37-22.16,12.5-33.79,18.38-1.24,1.23-2.6,2.21-4.09,2.94-1.49.74-2.85,1.6-4.09,2.57h-2.6c-3.47,2.21-6.63,3.99-9.47,5.33-2.85,1.35-6.01,3-9.47,4.96,1.49,1.47,3.22,2.52,5.2,3.12,1.98.61,4.14,1.1,6.5,1.47,2.35.37,4.76.74,7.24,1.1,2.47.37,4.7,1.04,6.68,2.02,4.21-.49,8.48-.3,12.81.55,4.33.86,8.36,1.78,12.07,2.76.99.49,1.92.68,2.79.55.86-.12,1.79.06,2.79.55.24,0,1.36.49,3.34,1.47.74.49,1.24.8,1.49.92.24.13.74-.06,1.49-.55,1.73,1.47,3.96,2.39,6.68,2.76,2.72.37,4.95,1.41,6.68,3.12,3.71,1.23,7.98,2.52,12.81,3.86,4.83,1.35,9.22,3.37,13.18,6.06.99-.49,1.98-.3,2.97.55.99.86,1.73,1.65,2.23,2.39.74-.24,1.54-.06,2.41.55.86.61,1.54,1.17,2.04,1.65,2.72,1.47,5.57,2.64,8.54,3.49,2.97.86,5.07,2.76,6.31,5.7-1.24-.49-2.11-.43-2.6.18-.5.61-1.11.68-1.86.18.24.49.19,1.04-.19,1.65-.37.61-.31.92.19.92-2.23.74-4.64,1.6-7.24,2.57-2.6.98-5.01,2.21-7.24,3.68-.25.74-.06,1.04.56.92.62-.12.8.18.56.92-3.96.49-8.3.55-13,.18-4.71-.37-9.41-.3-14.11.18-.25-.24-.37-.74-.37-1.47-1.24.49-2.66.92-4.27,1.29-1.61.37-2.66-.06-3.16-1.29-.5.25-.87.55-1.11.92-.25.37-.62.8-1.11,1.29-3.71-.74-7.31-1.59-10.77-2.57-3.47-.98-6.93-.61-10.4,1.1-1.98-.24-4.21-.61-6.68-1.1-2.48-.49-4.58-.86-6.31-1.1-1.73,0-3.78-.37-6.13-1.1-2.36-.74-4.4-1.22-6.13-1.47-.25,0-.37.06-.37.18s-.13.18-.37.18h-.37c-1.24,0-2.36-.24-3.34-.74-.99-.49-2.36-.74-4.09-.74-1.73.25-3.03.37-3.9.37s-2.04-.24-3.53-.74c-5.7-1.22-10.9-1.96-15.6-2.21-4.71-.24-10.28-.61-16.71-1.1-.5,0-.99-.12-1.49-.37-.5-.24-.99-.37-1.49-.37s-1.06.18-1.67.55c-.62.37-1.3.43-2.04.18-.5,0-.87-.12-1.11-.37-.25-.24-.62-.49-1.11-.74-.99-.49-2.23-.55-3.71-.18s-2.97.43-4.46.18c-1.98-.49-3.78-.98-5.38-1.47-1.61-.49-3.16-.74-4.64-.74-3.96,0-7.93.18-11.88.55-3.96.37-7.93.8-11.88,1.29-1.24,2.7-2.79,5.39-4.64,8.09-1.86,2.7-3.03,5.51-3.53,8.45-2.73,2.21-5.01,4.72-6.87,7.53-1.86,2.82-3.59,5.76-5.2,8.82-1.61,3.07-3.28,6.19-5.01,9.37-1.73,3.18-3.71,6-5.94,8.45v2.21c-2.23,1.96-4.15,4.16-5.76,6.62-1.61,2.45-3.28,4.9-5.01,7.35-1.73,2.45-3.66,4.65-5.76,6.62-2.11,1.96-4.64,3.43-7.61,4.41-1.24.49-2.17,1.29-2.79,2.39-.62,1.1-1.55,1.16-2.79.18,0-.98.43-1.53,1.3-1.65.86-.13,1.42-.68,1.67-1.65-.74-.74-1.8-1.6-3.16-2.57-1.36-.98-2.41-.74-3.16.74-.5-.25-.68-.55-.56-.92.12-.37-.06-.55-.56-.55-1.24.98-2.11,1.9-2.6,2.76-.5.86-1.11,1.9-1.86,3.12,0,.74.31,1.04.93.92.62-.13.8.3.56,1.29-.74.49-1.3,1.1-1.67,1.84s-.93,1.34-1.67,1.84c-1.24-.25-1.98-.86-2.23-1.84-.24-.98-.99-1.35-2.23-1.1-1.24.98-1.73,2.14-1.49,3.49.25,1.34-.62,2.02-2.6,2.02-1.98-1.47-3.59-3.07-4.83-4.78-1.24-1.72-3.34-2.33-6.31-1.84-.49-2.45-.74-5.09-.74-7.9s.25-5.58.74-8.27h0ZM26.1,229.36c-.49-.24-.86-.55-1.11-.92-.24-.37-.62-.55-1.11-.55v1.47c.5,0,.93.25,1.3.74.37.49.68.25.93-.74h0ZM40.96,324.55c.49-.49.99-.86,1.49-1.1.49-.25.62-.74.37-1.47-1.49,0-2.04-.25-1.67-.74.37-.49.31-.98-.19-1.47-.74,0-1.36.24-1.86.74-.5.49-.99.98-1.49,1.47,1.24-.49,2.04-.43,2.41.18.37.61.68,1.41.93,2.39ZM184.3,79.77c-1.98.49-2.6,1.35-1.86,2.57-.5,0-.74.13-.74.37.74-.24,1.42-.67,2.04-1.29s.8-1.16.56-1.65h0ZM186.16,68.01c.99-1.96,1.11-2.88.37-2.76-.74.13-.87,1.04-.37,2.76ZM242.61,101.46c-.25-.24-.87-.24-1.86,0-.99.25-1.98.61-2.97,1.1-1.24.49-2.17,1.1-2.79,1.84-.62.74-1.18,1.35-1.67,1.84,1.98-.98,3.59-1.84,4.83-2.57,1.24-.74,2.72-1.47,4.46-2.21ZM266.75,154.01c-.5,0-.87.18-1.11.55-.25.37-.62.8-1.11,1.29.24.25.62.13,1.11-.37s.86-.98,1.11-1.47h0ZM270.09,86.75c-1.24,0-2.23.31-2.97.92-.74.61-1.49,1.17-2.23,1.65,1.49,0,2.54-.3,3.16-.92s1.3-1.16,2.04-1.65Z"/><path class="cls-1" d="M131.29,474.83h2.46c.28-2.44.82-4.53,1.64-6.29.82-1.76,1.78-3.45,2.87-5.07,1.1-5.14,2.87-10.62,5.33-16.44,2.46-5.82,4.1-11.43,4.92-16.85.82,0,1.17-.34,1.03-1.01-.13-.67.21-1.01,1.03-1.01,1.37-5.14,3.08-9.88,5.13-14.21,2.05-4.33,3.9-8.93,5.54-13.8,0-.54-.35-.74-1.03-.61-.69.14-.89-.06-.62-.61,2.19-1.08,3.08-2.23,2.67-3.45s-1.37-2.57-2.87-4.06c-1.51-1.48-3.08-2.97-4.72-4.46-1.64-1.48-2.6-3.04-2.87-4.67-1.09.55-2.19.55-3.28,0-1.09-.54-2.19-.95-3.28-1.22.82-3.79.69-7.17-.41-10.15-.82,0-1.29.27-1.44.81-.13.55-.62.81-1.44.81-1.37-1.62-1.71-3.38-1.03-5.28.69-1.89.21-3.38-1.44-4.46.28-.81.48-1.28.62-1.42.14-.13.48-.47,1.03-1.01-.27-1.08-.62-1.35-1.03-.81-.41.55-.62.27-.62-.81,1.92-2.97,4.31-5,7.18-6.09,2.87-1.08,6.22-2.03,10.05-2.84,0-.81-.28-1.35-.82-1.62-.55-.27-.69-.81-.41-1.62,6.56.55,12.03-.34,16.41-2.64,4.37-2.3,9.16-4.12,14.35-5.48,1.64-7.31,4.24-13.6,7.79-18.87,3.55-5.28,6.56-11.3,9.02-18.06-.55-.27-1.03-.34-1.44-.2-.41.14-.62-.34-.62-1.42,0-.81.34-1.22,1.03-1.22s1.44-.13,2.26-.41c6.83-12.99,13.12-26.24,18.87-39.78,5.74-13.53,11.48-27.2,17.23-41,0-.54.13-.88.41-1.01.27-.13.13-.34-.41-.61,5.19-10.28,10.93-20.9,17.23-31.86,6.29-10.96,10.93-23.2,13.94-36.73,2.73-2.16,5.74-3.65,9.02-4.47s6.7-1.89,10.25-3.25c1.37,1.36,2.94,1.76,4.72,1.22,1.78-.54,3.35.14,4.72,2.03,1.37-.54,2.32-.81,2.87-.81s1.5.27,2.87.81c.54.27.82,1.08.82,2.44,1.91-.54,3.21-.95,3.9-1.22.68-.27,1.71-.27,3.08,0,.54,1.36,1.44,2.71,2.67,4.06,1.23,1.36,2.67,1.9,4.31,1.62l.82-.81c.27-.27.54-.41.82-.41,1.64.55,2.67,1.62,3.08,3.25s.75,3.39,1.03,5.28c2.46,2.71,3.9,5.75,4.31,9.13.41,3.39,1.85,6.16,4.31,8.32-.55.55-.82,1.01-.82,1.42s-.28.88-.82,1.42c-.28.55-.21.95.21,1.22.41.27.62.68.62,1.22-1.1,1.62-1.64,3.72-1.64,6.29s-.69,4.53-2.05,5.89c.54,3.25.13,6.43-1.23,9.54-1.37,3.11-2.33,6.56-2.87,10.35-.28.81-.21,1.42.21,1.83s.47.88.21,1.42c-.55,2.17-1.78,3.79-3.69,4.87-1.92,1.08-3.28,2.84-4.1,5.28-.28.81-.35,1.69-.21,2.64.13.95.06,1.83-.21,2.64-.82,2.98-2.19,5.62-4.1,7.92-1.92,2.3-3.01,4.67-3.28,7.1-2.19,2.44-3.56,5.62-4.1,9.54-.55,3.93-2.05,6.97-4.51,9.13-.82.55-.82,1.01,0,1.42s.82.75,0,1.01c-3.01,3.25-5.33,6.56-6.97,9.94-1.64,3.39-3.56,6.84-5.74,10.35,4.65-.27,9.64-1.15,14.97-2.64,5.33-1.48,10.05-3.31,14.15-5.48,2.19-2.44,4.85-4.6,8-6.49,3.14-1.89,6.42-3.72,9.84-5.48,3.42-1.76,6.77-3.58,10.05-5.48,3.28-1.89,6.15-4.19,8.61-6.9,1.37.27,2.26.14,2.67-.41.41-.54,1.03-.67,1.85-.41,1.09-.27,1.64-1.08,1.64-2.44,12.57-7.85,25.56-15.22,38.96-22.12,13.39-6.9,26.66-14,39.78-21.31.54-2.16,1.5-3.65,2.87-4.47,1.37-.81,2.87-1.48,4.51-2.03.27-2.7,1.44-4.87,3.49-6.49s4.37-2.77,6.97-3.45c2.6-.67,5.4-1.01,8.41-1.01s5.74.14,8.2.41c.54,2.17,1.57,3.65,3.08,4.47,1.5.81,3.01,1.62,4.51,2.44,1.5.81,2.8,1.9,3.9,3.25,1.09,1.36,1.64,3.39,1.64,6.09.54.55,1.09.95,1.64,1.22.54.27,1.09.68,1.64,1.22,0,2.71.68,4.67,2.05,5.89,1.37,1.22,2.46,2.64,3.28,4.26,0,.81-.28,1.42-.82,1.83-.55.41-.55,1.01,0,1.83.27.55.88.48,1.85-.2.96-.67,1.71-.61,2.26.2-1.37,2.98-2.81,6.16-4.31,9.54-1.51,3.39-3.63,6.16-6.36,8.32v3.25c-2.46,2.44-5.06,4.74-7.79,6.9-2.74,2.17-4.92,4.74-6.56,7.71-4.65,2.44-8.82,5.35-12.51,8.73-3.69,3.39-8.27,6.02-13.74,7.92-.28.81-.62,1.62-1.03,2.44s-.89,1.49-1.44,2.03c-2.74.81-5.13,1.83-7.18,3.04-2.05,1.22-3.76,2.91-5.13,5.07-4.92,1.62-8.89,4.33-11.89,8.12-13.12,6.49-25.7,13.26-37.73,20.3-12.03,7.04-24.47,13.8-37.32,20.3-1.37,1.36-2.87,2.44-4.51,3.25-1.64.81-3.15,1.76-4.51,2.84h-2.87c-3.83,2.44-7.32,4.4-10.46,5.89-3.15,1.49-6.63,3.32-10.46,5.48,1.64,1.62,3.55,2.78,5.74,3.45,2.19.68,4.58,1.22,7.18,1.62,2.6.41,5.26.81,8,1.22,2.73.41,5.19,1.15,7.38,2.23,4.65-.54,9.36-.34,14.15.61,4.78.95,9.23,1.97,13.33,3.04,1.09.55,2.12.75,3.08.61.96-.13,1.98.07,3.08.61.27,0,1.5.55,3.69,1.62.82.55,1.37.88,1.64,1.01.27.14.82-.06,1.64-.61,1.91,1.62,4.37,2.64,7.38,3.04,3.01.41,5.47,1.56,7.38,3.45,4.1,1.36,8.82,2.78,14.15,4.26,5.33,1.49,10.18,3.72,14.56,6.7,1.09-.54,2.19-.34,3.28.61,1.09.95,1.91,1.83,2.46,2.64.82-.27,1.71-.06,2.67.61.96.68,1.71,1.29,2.26,1.83,3.01,1.62,6.15,2.91,9.43,3.86,3.28.95,5.6,3.04,6.97,6.29-1.37-.54-2.33-.47-2.87.2-.55.68-1.23.75-2.05.2.27.55.21,1.15-.21,1.83-.41.68-.35,1.01.21,1.01-2.46.81-5.13,1.76-8,2.84-2.87,1.08-5.54,2.44-8,4.06-.28.81-.07,1.15.62,1.01.68-.13.88.2.62,1.01-4.38.55-9.16.61-14.35.2-5.2-.41-10.39-.34-15.59.2-.28-.27-.41-.81-.41-1.62-1.37.55-2.94,1.01-4.72,1.42-1.78.41-2.94-.06-3.49-1.42-.55.27-.96.61-1.23,1.01-.28.41-.69.88-1.23,1.42-4.1-.81-8.07-1.76-11.89-2.84-3.83-1.08-7.66-.67-11.48,1.22-2.19-.27-4.65-.67-7.38-1.22-2.74-.54-5.06-.95-6.97-1.22-1.92,0-4.17-.41-6.77-1.22-2.6-.81-4.86-1.35-6.77-1.62-.28,0-.41.07-.41.2s-.14.2-.41.2h-.41c-1.37,0-2.6-.27-3.69-.81-1.1-.54-2.6-.81-4.51-.81-1.92.27-3.35.41-4.31.41s-2.26-.27-3.9-.81c-6.29-1.35-12.03-2.16-17.23-2.44-5.2-.27-11.35-.67-18.46-1.22-.55,0-1.1-.13-1.64-.41-.55-.27-1.1-.41-1.64-.41s-1.17.2-1.85.61c-.69.41-1.44.48-2.26.2-.55,0-.96-.13-1.23-.41-.28-.27-.69-.54-1.23-.81-1.1-.54-2.46-.61-4.1-.2s-3.28.48-4.92.2c-2.19-.54-4.17-1.08-5.95-1.62-1.78-.54-3.49-.81-5.13-.81-4.38,0-8.75.2-13.12.61-4.38.41-8.75.88-13.12,1.42-1.37,2.98-3.08,5.96-5.13,8.93-2.05,2.98-3.35,6.09-3.9,9.34-3.01,2.44-5.54,5.21-7.59,8.32-2.05,3.11-3.97,6.36-5.74,9.74-1.78,3.39-3.63,6.84-5.54,10.35-1.92,3.51-4.1,6.63-6.56,9.34v2.44c-2.46,2.16-4.58,4.6-6.36,7.31-1.78,2.7-3.63,5.41-5.54,8.12-1.92,2.7-4.04,5.14-6.36,7.31-2.33,2.16-5.13,3.79-8.41,4.87-1.37.54-2.4,1.42-3.08,2.64-.69,1.22-1.71,1.28-3.08.2,0-1.08.47-1.69,1.44-1.83.96-.14,1.57-.75,1.85-1.83-.82-.81-1.99-1.76-3.49-2.84-1.51-1.08-2.67-.81-3.49.81-.55-.27-.76-.61-.62-1.01.13-.41-.07-.61-.62-.61-1.37,1.08-2.33,2.09-2.87,3.04-.55.95-1.23,2.09-2.05,3.45,0,.81.34,1.15,1.03,1.01.68-.14.88.34.62,1.42-.82.54-1.44,1.22-1.85,2.03-.41.81-1.03,1.48-1.85,2.03-1.37-.27-2.19-.95-2.46-2.03-.27-1.08-1.09-1.49-2.46-1.22-1.37,1.08-1.91,2.37-1.64,3.86.28,1.48-.68,2.23-2.87,2.23-2.19-1.62-3.96-3.39-5.33-5.28-1.37-1.9-3.69-2.57-6.97-2.03-.54-2.71-.82-5.62-.82-8.73s.28-6.16.82-9.13h0ZM150.56,379.04c-.54-.27-.96-.61-1.23-1.01-.27-.41-.68-.61-1.23-.61v1.62c.55,0,1.03.27,1.44.81.41.55.76.27,1.03-.81ZM166.97,484.17c.54-.55,1.09-.95,1.64-1.22.54-.27.68-.81.41-1.62-1.64,0-2.26-.27-1.85-.81.41-.55.34-1.08-.21-1.62-.82,0-1.51.27-2.05.81-.55.54-1.1,1.08-1.64,1.62,1.37-.55,2.26-.48,2.67.2.41.67.75,1.55,1.03,2.64ZM325.28,213.83c-2.19.55-2.87,1.49-2.05,2.84-.55,0-.82.14-.82.41.82-.27,1.57-.74,2.26-1.42.68-.67.88-1.28.62-1.83ZM327.33,200.85c1.09-2.16,1.23-3.18.41-3.04-.82.14-.96,1.15-.41,3.04ZM389.67,237.78c-.28-.27-.96-.27-2.05,0-1.1.27-2.19.68-3.28,1.22-1.37.55-2.4,1.22-3.08,2.03-.69.81-1.3,1.49-1.85,2.03,2.19-1.08,3.96-2.03,5.33-2.84,1.37-.81,3.01-1.62,4.92-2.44ZM416.33,295.83c-.55,0-.96.2-1.23.61-.28.41-.69.88-1.23,1.42.27.27.68.14,1.23-.41s.96-1.08,1.23-1.62ZM420.02,221.55c-1.37,0-2.46.34-3.28,1.01-.82.68-1.64,1.29-2.46,1.83,1.64,0,2.8-.34,3.49-1.01.68-.67,1.44-1.28,2.26-1.83Z"/></g><g id="Layer_1"><path class="cls-2" d="M.74,303.59h2.23c.25-2.21.74-4.11,1.49-5.7.74-1.6,1.61-3.12,2.6-4.59.99-4.66,2.6-9.62,4.83-14.89,2.23-5.27,3.71-10.35,4.46-15.25.74,0,1.06-.3.93-.92-.12-.61.19-.92.93-.92,1.24-4.65,2.79-8.94,4.64-12.86,1.86-3.92,3.53-8.09,5.01-12.5,0-.49-.31-.67-.93-.55-.62.13-.81-.06-.56-.55,1.98-.98,2.79-2.02,2.41-3.12-.37-1.1-1.24-2.33-2.6-3.68-1.36-1.34-2.79-2.69-4.27-4.04-1.49-1.34-2.36-2.76-2.6-4.23-.99.49-1.98.49-2.97,0-.99-.49-1.98-.86-2.97-1.1.74-3.43.62-6.49-.37-9.19-.74,0-1.17.25-1.3.74-.12.49-.56.74-1.3.74-1.24-1.47-1.54-3.06-.93-4.78.62-1.71.19-3.06-1.3-4.04.25-.74.44-1.16.56-1.29.13-.12.44-.43.93-.92-.24-.98-.56-1.22-.93-.74-.37.49-.56.25-.56-.74,1.73-2.69,3.9-4.53,6.5-5.51,2.6-.98,5.63-1.84,9.1-2.57,0-.74-.25-1.22-.74-1.47-.5-.24-.62-.74-.37-1.47,5.94.49,10.89-.3,14.85-2.39,3.96-2.08,8.29-3.73,13-4.96,1.49-6.62,3.84-12.31,7.06-17.09,3.22-4.78,5.94-10.23,8.17-16.36-.5-.24-.93-.3-1.3-.18-.37.13-.56-.3-.56-1.29,0-.74.31-1.1.93-1.1s1.3-.12,2.04-.37c6.19-11.76,11.88-23.76,17.08-36.02,5.2-12.25,10.4-24.63,15.6-37.12,0-.49.12-.79.37-.92.24-.12.12-.3-.37-.55,4.7-9.31,9.9-18.93,15.6-28.85,5.69-9.92,9.9-21.01,12.63-33.26,2.47-1.96,5.2-3.31,8.17-4.04s6.06-1.71,9.28-2.94c1.24,1.23,2.66,1.6,4.27,1.1,1.61-.49,3.03.13,4.27,1.84,1.24-.49,2.1-.74,2.6-.74s1.36.25,2.6.74c.49.25.74.98.74,2.21,1.73-.49,2.91-.86,3.53-1.1.62-.24,1.54-.24,2.79,0,.49,1.23,1.3,2.45,2.41,3.68,1.11,1.23,2.41,1.72,3.9,1.47l.74-.74c.24-.24.49-.37.74-.37,1.49.49,2.41,1.47,2.79,2.94s.68,3.07.93,4.78c2.23,2.45,3.53,5.21,3.9,8.27.37,3.07,1.67,5.58,3.9,7.53-.5.49-.74.92-.74,1.29s-.25.8-.74,1.29c-.25.49-.19.86.19,1.1.37.25.56.61.56,1.1-.99,1.47-1.49,3.37-1.49,5.7s-.62,4.11-1.86,5.33c.49,2.94.12,5.82-1.11,8.64-1.24,2.82-2.11,5.94-2.6,9.37-.25.74-.19,1.29.19,1.65.37.37.43.8.19,1.29-.5,1.96-1.61,3.43-3.34,4.41-1.73.98-2.97,2.57-3.71,4.78-.25.74-.31,1.53-.19,2.39.12.86.06,1.65-.19,2.39-.74,2.7-1.98,5.09-3.71,7.17-1.73,2.08-2.73,4.23-2.97,6.43-1.98,2.21-3.22,5.09-3.71,8.64-.5,3.55-1.86,6.31-4.09,8.27-.74.49-.74.92,0,1.29s.74.68,0,.92c-2.73,2.94-4.83,5.94-6.31,9-1.49,3.07-3.22,6.19-5.2,9.37,4.21-.24,8.73-1.04,13.56-2.39,4.83-1.34,9.1-3,12.81-4.96,1.98-2.21,4.39-4.16,7.24-5.88,2.84-1.71,5.81-3.37,8.91-4.96,3.09-1.59,6.13-3.24,9.1-4.96,2.97-1.71,5.57-3.8,7.8-6.25,1.24.25,2.04.13,2.41-.37.37-.49.93-.61,1.67-.37.99-.24,1.49-.98,1.49-2.21,11.39-7.1,23.15-13.78,35.28-20.03,12.13-6.25,24.14-12.68,36.02-19.3.49-1.96,1.36-3.31,2.6-4.04,1.24-.74,2.6-1.34,4.09-1.84.24-2.45,1.3-4.41,3.16-5.88s3.96-2.51,6.31-3.12c2.35-.61,4.89-.92,7.61-.92s5.2.13,7.43.37c.49,1.96,1.42,3.31,2.79,4.04,1.36.74,2.72,1.47,4.09,2.21,1.36.74,2.54,1.72,3.53,2.94.99,1.23,1.49,3.07,1.49,5.51.49.49.99.86,1.49,1.1.49.25.99.61,1.49,1.1,0,2.45.62,4.23,1.86,5.33,1.24,1.1,2.23,2.39,2.97,3.86,0,.74-.25,1.29-.74,1.65-.5.37-.5.92,0,1.65.24.49.8.43,1.67-.18.86-.61,1.54-.55,2.04.18-1.24,2.7-2.54,5.58-3.9,8.64-1.36,3.07-3.28,5.58-5.76,7.53v2.94c-2.23,2.21-4.58,4.29-7.06,6.25-2.48,1.96-4.46,4.29-5.94,6.98-4.21,2.21-7.98,4.84-11.33,7.9-3.34,3.07-7.49,5.46-12.44,7.17-.25.74-.56,1.47-.93,2.21s-.81,1.35-1.3,1.84c-2.48.74-4.64,1.65-6.5,2.76s-3.41,2.64-4.64,4.59c-4.46,1.47-8.05,3.92-10.77,7.35-11.88,5.88-23.27,12.01-34.17,18.38-10.9,6.37-22.16,12.5-33.79,18.38-1.24,1.23-2.6,2.21-4.09,2.94-1.49.74-2.85,1.6-4.09,2.57h-2.6c-3.47,2.21-6.63,3.99-9.47,5.33-2.85,1.35-6.01,3-9.47,4.96,1.49,1.47,3.22,2.52,5.2,3.12,1.98.61,4.14,1.1,6.5,1.47,2.35.37,4.76.74,7.24,1.1,2.47.37,4.7,1.04,6.68,2.02,4.21-.49,8.48-.3,12.81.55,4.33.86,8.36,1.78,12.07,2.76.99.49,1.92.68,2.79.55.86-.12,1.79.06,2.79.55.24,0,1.36.49,3.34,1.47.74.49,1.24.8,1.49.92.24.13.74-.06,1.49-.55,1.73,1.47,3.96,2.39,6.68,2.76,2.72.37,4.95,1.41,6.68,3.12,3.71,1.23,7.98,2.52,12.81,3.86,4.83,1.35,9.22,3.37,13.18,6.06.99-.49,1.98-.3,2.97.55.99.86,1.73,1.65,2.23,2.39.74-.24,1.54-.06,2.41.55.86.61,1.54,1.17,2.04,1.65,2.72,1.47,5.57,2.64,8.54,3.49,2.97.86,5.07,2.76,6.31,5.7-1.24-.49-2.11-.43-2.6.18-.5.61-1.11.68-1.86.18.24.49.19,1.04-.19,1.65-.37.61-.31.92.19.92-2.23.74-4.64,1.6-7.24,2.57-2.6.98-5.01,2.21-7.24,3.68-.25.74-.06,1.04.56.92.62-.12.8.18.56.92-3.96.49-8.3.55-13,.18-4.71-.37-9.41-.3-14.11.18-.25-.24-.37-.74-.37-1.47-1.24.49-2.66.92-4.27,1.29-1.61.37-2.66-.06-3.16-1.29-.5.25-.87.55-1.11.92-.25.37-.62.8-1.11,1.29-3.71-.74-7.31-1.59-10.77-2.57-3.47-.98-6.93-.61-10.4,1.1-1.98-.24-4.21-.61-6.68-1.1-2.48-.49-4.58-.86-6.31-1.1-1.73,0-3.78-.37-6.13-1.1-2.36-.74-4.4-1.22-6.13-1.47-.25,0-.37.06-.37.18s-.13.18-.37.18h-.37c-1.24,0-2.36-.24-3.34-.74-.99-.49-2.36-.74-4.09-.74-1.73.25-3.03.37-3.9.37s-2.04-.24-3.53-.74c-5.7-1.22-10.9-1.96-15.6-2.21-4.71-.24-10.28-.61-16.71-1.1-.5,0-.99-.12-1.49-.37-.5-.24-.99-.37-1.49-.37s-1.06.18-1.67.55c-.62.37-1.3.43-2.04.18-.5,0-.87-.12-1.11-.37-.25-.24-.62-.49-1.11-.74-.99-.49-2.23-.55-3.71-.18s-2.97.43-4.46.18c-1.98-.49-3.78-.98-5.38-1.47-1.61-.49-3.16-.74-4.64-.74-3.96,0-7.93.18-11.88.55-3.96.37-7.93.8-11.88,1.29-1.24,2.7-2.79,5.39-4.64,8.09-1.86,2.7-3.03,5.51-3.53,8.45-2.73,2.21-5.01,4.72-6.87,7.53-1.86,2.82-3.59,5.76-5.2,8.82-1.61,3.07-3.28,6.19-5.01,9.37-1.73,3.18-3.71,6-5.94,8.45v2.21c-2.23,1.96-4.15,4.16-5.76,6.62-1.61,2.45-3.28,4.9-5.01,7.35-1.73,2.45-3.66,4.65-5.76,6.62-2.11,1.96-4.64,3.43-7.61,4.41-1.24.49-2.17,1.29-2.79,2.39-.62,1.1-1.55,1.16-2.79.18,0-.98.43-1.53,1.3-1.65.86-.13,1.42-.68,1.67-1.65-.74-.74-1.8-1.6-3.16-2.57-1.36-.98-2.41-.74-3.16.74-.5-.25-.68-.55-.56-.92.12-.37-.06-.55-.56-.55-1.24.98-2.11,1.9-2.6,2.76-.5.86-1.11,1.9-1.86,3.12,0,.74.31,1.04.93.92.62-.13.8.3.56,1.29-.74.49-1.3,1.1-1.67,1.84s-.93,1.34-1.67,1.84c-1.24-.25-1.98-.86-2.23-1.84-.24-.98-.99-1.35-2.23-1.1-1.24.98-1.73,2.14-1.49,3.49.25,1.34-.62,2.02-2.6,2.02-1.98-1.47-3.59-3.07-4.83-4.78-1.24-1.72-3.34-2.33-6.31-1.84-.49-2.45-.74-5.09-.74-7.9s.25-5.58.74-8.27h0ZM18.2,216.85c-.49-.24-.86-.55-1.11-.92-.24-.37-.62-.55-1.11-.55v1.47c.5,0,.93.25,1.3.74.37.49.68.25.93-.74h0ZM33.05,312.04c.49-.49.99-.86,1.49-1.1.49-.25.62-.74.37-1.47-1.49,0-2.04-.25-1.67-.74.37-.49.31-.98-.19-1.47-.74,0-1.36.24-1.86.74-.5.49-.99.98-1.49,1.47,1.24-.49,2.04-.43,2.41.18.37.61.68,1.41.93,2.39ZM176.4,67.26c-1.98.49-2.6,1.35-1.86,2.57-.5,0-.74.13-.74.37.74-.24,1.42-.67,2.04-1.29s.8-1.16.56-1.65h0ZM178.26,55.5c.99-1.96,1.11-2.88.37-2.76-.74.13-.87,1.04-.37,2.76ZM234.71,88.95c-.25-.24-.87-.24-1.86,0-.99.25-1.98.61-2.97,1.1-1.24.49-2.17,1.1-2.79,1.84-.62.74-1.18,1.35-1.67,1.84,1.98-.98,3.59-1.84,4.83-2.57,1.24-.74,2.72-1.47,4.46-2.21ZM258.85,141.5c-.5,0-.87.18-1.11.55-.25.37-.62.8-1.11,1.29.24.25.62.13,1.11-.37s.86-.98,1.11-1.47h0ZM262.19,74.24c-1.24,0-2.23.31-2.97.92-.74.61-1.49,1.17-2.23,1.65,1.49,0,2.54-.3,3.16-.92s1.3-1.16,2.04-1.65Z"/><path class="cls-2" d="M123.38,462.32h2.46c.28-2.44.82-4.53,1.64-6.29.82-1.76,1.78-3.45,2.87-5.07,1.1-5.14,2.87-10.62,5.33-16.44s4.1-11.43,4.92-16.85c.82,0,1.17-.34,1.03-1.01-.13-.67.21-1.01,1.03-1.01,1.37-5.14,3.08-9.88,5.13-14.21,2.05-4.33,3.9-8.93,5.54-13.8,0-.54-.35-.74-1.03-.61-.69.14-.89-.06-.62-.61,2.19-1.08,3.08-2.23,2.67-3.45s-1.37-2.57-2.87-4.06c-1.51-1.48-3.08-2.97-4.72-4.46-1.64-1.48-2.6-3.04-2.87-4.67-1.09.55-2.19.55-3.28,0-1.09-.54-2.19-.95-3.28-1.22.82-3.79.69-7.17-.41-10.15-.82,0-1.29.27-1.44.81-.13.55-.62.81-1.44.81-1.37-1.62-1.71-3.38-1.03-5.28.69-1.89.21-3.38-1.44-4.46.28-.81.48-1.28.62-1.42.14-.13.48-.47,1.03-1.01-.27-1.08-.62-1.35-1.03-.81-.41.55-.62.27-.62-.81,1.92-2.97,4.31-5,7.18-6.09,2.87-1.08,6.22-2.03,10.05-2.84,0-.81-.28-1.35-.82-1.62-.55-.27-.69-.81-.41-1.62,6.56.55,12.03-.34,16.41-2.64,4.37-2.3,9.16-4.12,14.35-5.48,1.64-7.31,4.24-13.6,7.79-18.87,3.55-5.28,6.56-11.3,9.02-18.06-.55-.27-1.03-.34-1.44-.2-.41.14-.62-.34-.62-1.42,0-.81.34-1.22,1.03-1.22s1.44-.13,2.26-.41c6.83-12.99,13.12-26.24,18.87-39.78,5.74-13.53,11.48-27.2,17.23-41,0-.54.13-.88.41-1.01.27-.13.13-.34-.41-.61,5.19-10.28,10.93-20.9,17.23-31.86,6.29-10.96,10.93-23.2,13.94-36.73,2.73-2.16,5.74-3.65,9.02-4.47s6.7-1.89,10.25-3.25c1.37,1.36,2.94,1.76,4.72,1.22,1.78-.54,3.35.14,4.72,2.03,1.37-.54,2.32-.81,2.87-.81s1.5.27,2.87.81c.54.27.82,1.08.82,2.44,1.91-.54,3.21-.95,3.9-1.22.68-.27,1.71-.27,3.08,0,.54,1.36,1.44,2.71,2.67,4.06,1.23,1.36,2.67,1.9,4.31,1.62l.82-.81c.27-.27.54-.41.82-.41,1.64.55,2.67,1.62,3.08,3.25s.75,3.39,1.03,5.28c2.46,2.71,3.9,5.75,4.31,9.13.41,3.39,1.85,6.16,4.31,8.32-.55.55-.82,1.01-.82,1.42s-.28.88-.82,1.42c-.28.55-.21.95.21,1.22.41.27.62.68.62,1.22-1.1,1.62-1.64,3.72-1.64,6.29s-.69,4.53-2.05,5.89c.54,3.25.13,6.43-1.23,9.54-1.37,3.11-2.33,6.56-2.87,10.35-.28.81-.21,1.42.21,1.83s.47.88.21,1.42c-.55,2.17-1.78,3.79-3.69,4.87-1.92,1.08-3.28,2.84-4.1,5.28-.28.81-.35,1.69-.21,2.64.13.95.06,1.83-.21,2.64-.82,2.98-2.19,5.62-4.1,7.92-1.92,2.3-3.01,4.67-3.28,7.1-2.19,2.44-3.56,5.62-4.1,9.54-.55,3.93-2.05,6.97-4.51,9.13-.82.55-.82,1.01,0,1.42s.82.75,0,1.01c-3.01,3.25-5.33,6.56-6.97,9.94-1.64,3.39-3.56,6.84-5.74,10.35,4.65-.27,9.64-1.15,14.97-2.64,5.33-1.48,10.05-3.31,14.15-5.48,2.19-2.44,4.85-4.6,8-6.49,3.14-1.89,6.42-3.72,9.84-5.48,3.42-1.76,6.77-3.58,10.05-5.48,3.28-1.89,6.15-4.19,8.61-6.9,1.37.27,2.26.14,2.67-.41.41-.54,1.03-.67,1.85-.41,1.09-.27,1.64-1.08,1.64-2.44,12.57-7.85,25.56-15.22,38.96-22.12,13.39-6.9,26.66-14,39.78-21.31.54-2.16,1.5-3.65,2.87-4.47,1.37-.81,2.87-1.48,4.51-2.03.27-2.7,1.44-4.87,3.49-6.49s4.37-2.77,6.97-3.45c2.6-.67,5.4-1.01,8.41-1.01s5.74.14,8.2.41c.54,2.17,1.57,3.65,3.08,4.47,1.5.81,3.01,1.62,4.51,2.44,1.5.81,2.8,1.9,3.9,3.25,1.09,1.36,1.64,3.39,1.64,6.09.54.55,1.09.95,1.64,1.22.54.27,1.09.68,1.64,1.22,0,2.71.68,4.67,2.05,5.89,1.37,1.22,2.46,2.64,3.28,4.26,0,.81-.28,1.42-.82,1.83-.55.41-.55,1.01,0,1.83.27.55.88.48,1.85-.2.96-.67,1.71-.61,2.26.2-1.37,2.98-2.81,6.16-4.31,9.54-1.51,3.39-3.63,6.16-6.36,8.32v3.25c-2.46,2.44-5.06,4.74-7.79,6.9-2.74,2.17-4.92,4.74-6.56,7.71-4.65,2.44-8.82,5.35-12.51,8.73-3.69,3.39-8.27,6.02-13.74,7.92-.28.81-.62,1.62-1.03,2.44s-.89,1.49-1.44,2.03c-2.74.81-5.13,1.83-7.18,3.04s-3.76,2.91-5.13,5.07c-4.92,1.62-8.89,4.33-11.89,8.12-13.12,6.49-25.7,13.26-37.73,20.3-12.03,7.04-24.47,13.8-37.32,20.3-1.37,1.36-2.87,2.44-4.51,3.25-1.64.81-3.15,1.76-4.51,2.84h-2.87c-3.83,2.44-7.32,4.4-10.46,5.89-3.15,1.49-6.63,3.32-10.46,5.48,1.64,1.62,3.55,2.78,5.74,3.45,2.19.68,4.58,1.22,7.18,1.62,2.6.41,5.26.81,8,1.22,2.73.41,5.19,1.15,7.38,2.23,4.65-.54,9.36-.34,14.15.61,4.78.95,9.23,1.97,13.33,3.04,1.09.55,2.12.75,3.08.61.96-.13,1.98.07,3.08.61.27,0,1.5.55,3.69,1.62.82.55,1.37.88,1.64,1.01.27.14.82-.06,1.64-.61,1.91,1.62,4.37,2.64,7.38,3.04,3.01.41,5.47,1.56,7.38,3.45,4.1,1.36,8.82,2.78,14.15,4.26,5.33,1.49,10.18,3.72,14.56,6.7,1.09-.54,2.19-.34,3.28.61,1.09.95,1.91,1.83,2.46,2.64.82-.27,1.71-.06,2.67.61.96.68,1.71,1.29,2.26,1.83,3.01,1.62,6.15,2.91,9.43,3.86,3.28.95,5.6,3.04,6.97,6.29-1.37-.54-2.33-.47-2.87.2-.55.68-1.23.75-2.05.2.27.55.21,1.15-.21,1.83-.41.68-.35,1.01.21,1.01-2.46.81-5.13,1.76-8,2.84-2.87,1.08-5.54,2.44-8,4.06-.28.81-.07,1.15.62,1.01.68-.13.88.2.62,1.01-4.38.55-9.16.61-14.35.2-5.2-.41-10.39-.34-15.59.2-.28-.27-.41-.81-.41-1.62-1.37.55-2.94,1.01-4.72,1.42-1.78.41-2.94-.06-3.49-1.42-.55.27-.96.61-1.23,1.01-.28.41-.69.88-1.23,1.42-4.1-.81-8.07-1.76-11.89-2.84-3.83-1.08-7.66-.67-11.48,1.22-2.19-.27-4.65-.67-7.38-1.22-2.74-.54-5.06-.95-6.97-1.22-1.92,0-4.17-.41-6.77-1.22-2.6-.81-4.86-1.35-6.77-1.62-.28,0-.41.07-.41.2s-.14.2-.41.2h-.41c-1.37,0-2.6-.27-3.69-.81-1.1-.54-2.6-.81-4.51-.81-1.92.27-3.35.41-4.31.41s-2.26-.27-3.9-.81c-6.29-1.35-12.03-2.16-17.23-2.44-5.2-.27-11.35-.67-18.46-1.22-.55,0-1.1-.13-1.64-.41-.55-.27-1.1-.41-1.64-.41s-1.17.2-1.85.61c-.69.41-1.44.48-2.26.2-.55,0-.96-.13-1.23-.41-.28-.27-.69-.54-1.23-.81-1.1-.54-2.46-.61-4.1-.2s-3.28.48-4.92.2c-2.19-.54-4.17-1.08-5.95-1.62-1.78-.54-3.49-.81-5.13-.81-4.38,0-8.75.2-13.12.61-4.38.41-8.75.88-13.12,1.42-1.37,2.98-3.08,5.96-5.13,8.93-2.05,2.98-3.35,6.09-3.9,9.34-3.01,2.44-5.54,5.21-7.59,8.32-2.05,3.11-3.97,6.36-5.74,9.74-1.78,3.39-3.63,6.84-5.54,10.35-1.92,3.51-4.1,6.63-6.56,9.34v2.44c-2.46,2.16-4.58,4.6-6.36,7.31-1.78,2.7-3.63,5.41-5.54,8.12-1.92,2.7-4.04,5.14-6.36,7.31-2.33,2.16-5.13,3.79-8.41,4.87-1.37.54-2.4,1.42-3.08,2.64-.69,1.22-1.71,1.28-3.08.2,0-1.08.47-1.69,1.44-1.83.96-.14,1.57-.75,1.85-1.83-.82-.81-1.99-1.76-3.49-2.84-1.51-1.08-2.67-.81-3.49.81-.55-.27-.76-.61-.62-1.01.13-.41-.07-.61-.62-.61-1.37,1.08-2.33,2.09-2.87,3.04-.55.95-1.23,2.09-2.05,3.45,0,.81.34,1.15,1.03,1.01.68-.14.88.34.62,1.42-.82.54-1.44,1.22-1.85,2.03-.41.81-1.03,1.48-1.85,2.03-1.37-.27-2.19-.95-2.46-2.03-.27-1.08-1.09-1.49-2.46-1.22-1.37,1.08-1.91,2.37-1.64,3.86.28,1.48-.68,2.23-2.87,2.23-2.19-1.62-3.96-3.39-5.33-5.28-1.37-1.9-3.69-2.57-6.97-2.03-.54-2.71-.82-5.62-.82-8.73s.28-6.16.82-9.13h0ZM142.66,366.53c-.54-.27-.96-.61-1.23-1.01-.27-.41-.68-.61-1.23-.61v1.62c.55,0,1.03.27,1.44.81.41.55.76.27,1.03-.81ZM159.07,471.66c.54-.55,1.09-.95,1.64-1.22.54-.27.68-.81.41-1.62-1.64,0-2.26-.27-1.85-.81.41-.55.34-1.08-.21-1.62-.82,0-1.51.27-2.05.81-.55.54-1.1,1.08-1.64,1.62,1.37-.55,2.26-.48,2.67.2.41.67.75,1.55,1.03,2.64ZM317.38,201.32c-2.19.55-2.87,1.49-2.05,2.84-.55,0-.82.14-.82.41.82-.27,1.57-.74,2.26-1.42.68-.67.88-1.28.62-1.83ZM319.43,188.33c1.09-2.16,1.23-3.18.41-3.04-.82.14-.96,1.15-.41,3.04ZM381.77,225.27c-.28-.27-.96-.27-2.05,0-1.1.27-2.19.68-3.28,1.22-1.37.55-2.4,1.22-3.08,2.03-.69.81-1.3,1.49-1.85,2.03,2.19-1.08,3.96-2.03,5.33-2.84,1.37-.81,3.01-1.62,4.92-2.44ZM408.43,283.32c-.55,0-.96.2-1.23.61-.28.41-.69.88-1.23,1.42.27.27.68.14,1.23-.41s.96-1.08,1.23-1.62ZM412.12,209.04c-1.37,0-2.46.34-3.28,1.01-.82.68-1.64,1.29-2.46,1.83,1.64,0,2.8-.34,3.49-1.01.68-.67,1.44-1.28,2.26-1.83Z"/></g></svg>