<?xml version="1.0" encoding="UTF-8"?><svg id="Layer_1" xmlns="http://www.w3.org/2000/svg" viewBox="0 0 500 500"><defs><style>.cls-1{fill:#7f3f98;}</style></defs><path class="cls-1" d="M4.12,459.42h3.29c.37-3.29,1.1-6.12,2.19-8.5,1.1-2.38,2.38-4.66,3.84-6.85,1.46-6.95,3.84-14.35,7.13-22.2,3.29-7.85,5.48-15.44,6.58-22.75,1.1,0,1.56-.45,1.37-1.37-.18-.91.27-1.37,1.37-1.37,1.82-6.94,4.11-13.34,6.85-19.19,2.74-5.84,5.21-12.06,7.4-18.64,0-.73-.46-1-1.37-.82-.92.19-1.19-.09-.82-.82,2.92-1.46,4.11-3.02,3.56-4.66-.55-1.64-1.83-3.47-3.84-5.48-2.01-2-4.11-4.02-6.3-6.03-2.19-2-3.48-4.11-3.84-6.3-1.46.74-2.92.74-4.39,0-1.46-.73-2.92-1.28-4.39-1.64,1.1-5.11.92-9.68-.55-13.71-1.1,0-1.73.37-1.92,1.1-.18.74-.82,1.1-1.92,1.1-1.82-2.19-2.28-4.57-1.37-7.13.92-2.55.27-4.57-1.92-6.03.37-1.1.64-1.73.82-1.92.19-.18.64-.63,1.37-1.37-.36-1.46-.82-1.82-1.37-1.1-.55.74-.82.37-.82-1.1,2.56-4.02,5.76-6.76,9.59-8.22,3.84-1.46,8.31-2.74,13.43-3.84,0-1.1-.37-1.82-1.1-2.19-.74-.36-.92-1.1-.55-2.19,8.77.74,16.08-.45,21.93-3.56,5.84-3.1,12.24-5.57,19.19-7.4,2.19-9.87,5.66-18.37,10.42-25.49,4.75-7.13,8.77-15.26,12.06-24.4-.74-.36-1.37-.45-1.92-.27-.55.19-.82-.45-.82-1.92,0-1.1.45-1.64,1.37-1.64s1.92-.18,3.01-.55c9.13-17.54,17.54-35.45,25.22-53.73,7.67-18.27,15.35-36.73,23.03-55.37,0-.73.18-1.18.55-1.37.36-.18.18-.45-.55-.82,6.94-13.89,14.61-28.23,23.03-43.03,8.4-14.8,14.61-31.33,18.64-49.61,3.65-2.92,7.67-4.93,12.06-6.03s8.95-2.55,13.71-4.39c1.82,1.83,3.92,2.38,6.3,1.64,2.37-.73,4.47.19,6.3,2.74,1.82-.73,3.1-1.1,3.84-1.1s2,.37,3.84,1.1c.73.37,1.1,1.47,1.1,3.29,2.55-.73,4.29-1.28,5.21-1.64.91-.36,2.28-.36,4.11,0,.73,1.83,1.92,3.66,3.56,5.48,1.64,1.83,3.56,2.56,5.76,2.19l1.1-1.1c.36-.36.73-.55,1.1-.55,2.19.74,3.56,2.19,4.11,4.39.55,2.19,1,4.57,1.37,7.13,3.29,3.66,5.21,7.77,5.76,12.33.55,4.57,2.47,8.32,5.76,11.24-.74.74-1.1,1.37-1.1,1.92s-.37,1.19-1.1,1.92c-.37.74-.27,1.28.27,1.64.55.37.82.92.82,1.64-1.47,2.19-2.19,5.03-2.19,8.5s-.92,6.12-2.74,7.95c.73,4.39.18,8.69-1.64,12.88-1.83,4.21-3.11,8.87-3.84,13.98-.37,1.1-.27,1.92.27,2.47.55.55.63,1.19.27,1.92-.74,2.93-2.38,5.12-4.93,6.58-2.56,1.47-4.39,3.84-5.48,7.13-.37,1.1-.46,2.29-.27,3.56.18,1.28.09,2.47-.27,3.56-1.1,4.03-2.93,7.59-5.48,10.69-2.56,3.11-4.03,6.3-4.39,9.59-2.93,3.29-4.75,7.59-5.48,12.88-.74,5.3-2.74,9.41-6.03,12.33-1.1.74-1.1,1.37,0,1.92,1.1.55,1.1,1.01,0,1.37-4.03,4.39-7.13,8.87-9.32,13.43-2.19,4.57-4.75,9.23-7.67,13.98,6.21-.36,12.88-1.55,20.01-3.56,7.13-2,13.43-4.47,18.91-7.4,2.92-3.29,6.48-6.21,10.69-8.77,4.2-2.55,8.58-5.02,13.16-7.4,4.57-2.37,9.05-4.84,13.43-7.4,4.39-2.55,8.22-5.66,11.51-9.32,1.82.37,3.02.19,3.56-.55.55-.73,1.37-.91,2.47-.55,1.46-.36,2.19-1.46,2.19-3.29,16.81-10.6,34.17-20.56,52.08-29.88,17.9-9.32,35.63-18.91,53.18-28.78.73-2.92,2-4.93,3.84-6.03,1.82-1.1,3.84-2,6.03-2.74.36-3.65,1.92-6.58,4.66-8.77s5.84-3.74,9.32-4.66c3.47-.91,7.21-1.37,11.24-1.37s7.68.19,10.96.55c.73,2.93,2.1,4.93,4.11,6.03,2,1.1,4.02,2.19,6.03,3.29,2,1.1,3.74,2.56,5.21,4.39,1.46,1.83,2.19,4.57,2.19,8.22.73.74,1.46,1.28,2.19,1.64.73.37,1.46.92,2.19,1.64,0,3.66.91,6.3,2.74,7.95,1.82,1.64,3.29,3.56,4.39,5.76,0,1.1-.37,1.92-1.1,2.47-.74.55-.74,1.37,0,2.47.36.74,1.18.64,2.47-.27,1.28-.91,2.28-.82,3.02.27-1.83,4.03-3.75,8.32-5.76,12.88-2.01,4.57-4.85,8.32-8.5,11.24v4.39c-3.29,3.29-6.77,6.4-10.42,9.32-3.66,2.93-6.58,6.4-8.77,10.42-6.22,3.29-11.79,7.22-16.72,11.79-4.93,4.57-11.06,8.14-18.37,10.69-.37,1.1-.82,2.19-1.37,3.29s-1.19,2.01-1.92,2.74c-3.66,1.1-6.85,2.47-9.59,4.11s-5.03,3.93-6.85,6.85c-6.58,2.19-11.88,5.85-15.9,10.96-17.54,8.77-34.36,17.91-50.44,27.41-16.09,9.51-32.71,18.64-49.89,27.41-1.83,1.83-3.84,3.29-6.03,4.39-2.19,1.1-4.21,2.38-6.03,3.84h-3.84c-5.12,3.29-9.78,5.94-13.98,7.95-4.21,2.01-8.87,4.48-13.98,7.4,2.19,2.19,4.75,3.75,7.68,4.66,2.92.92,6.12,1.64,9.59,2.19,3.47.55,7.03,1.1,10.69,1.64,3.65.55,6.94,1.56,9.87,3.01,6.21-.73,12.51-.45,18.91.82,6.39,1.28,12.33,2.66,17.82,4.11,1.46.74,2.83,1.01,4.11.82,1.28-.18,2.65.09,4.11.82.36,0,2,.74,4.93,2.19,1.1.74,1.82,1.19,2.19,1.37.36.19,1.1-.09,2.19-.82,2.55,2.19,5.84,3.56,9.87,4.11,4.02.55,7.31,2.11,9.87,4.66,5.48,1.83,11.79,3.75,18.91,5.76,7.13,2.01,13.61,5.03,19.46,9.05,1.46-.73,2.92-.45,4.39.82,1.46,1.28,2.55,2.47,3.29,3.56,1.1-.36,2.28-.09,3.56.82,1.28.92,2.28,1.74,3.02,2.47,4.02,2.19,8.22,3.93,12.61,5.21,4.39,1.28,7.49,4.11,9.32,8.5-1.83-.73-3.11-.63-3.84.27-.74.92-1.64,1.01-2.74.27.36.74.27,1.56-.27,2.47-.55.92-.46,1.37.27,1.37-3.29,1.1-6.85,2.38-10.69,3.84-3.84,1.46-7.4,3.29-10.69,5.48-.37,1.1-.09,1.56.82,1.37.91-.18,1.18.27.82,1.37-5.85.74-12.25.82-19.19.27-6.95-.55-13.89-.45-20.83.27-.37-.36-.55-1.1-.55-2.19-1.83.74-3.93,1.37-6.3,1.92-2.38.55-3.93-.09-4.66-1.92-.74.37-1.28.82-1.64,1.37-.37.55-.92,1.19-1.64,1.92-5.48-1.1-10.78-2.37-15.9-3.84-5.12-1.46-10.24-.91-15.35,1.64-2.93-.36-6.22-.91-9.87-1.64-3.66-.73-6.77-1.28-9.32-1.64-2.56,0-5.58-.55-9.05-1.64-3.48-1.1-6.49-1.82-9.05-2.19-.37,0-.55.09-.55.27,0,.19-.19.27-.55.27h-.55c-1.83,0-3.48-.36-4.93-1.1-1.46-.73-3.48-1.1-6.03-1.1-2.56.37-4.48.55-5.76.55s-3.02-.36-5.21-1.1c-8.41-1.82-16.09-2.92-23.03-3.29-6.95-.36-15.17-.91-24.67-1.64-.74,0-1.46-.18-2.19-.55-.74-.36-1.46-.55-2.19-.55s-1.56.27-2.47.82c-.92.55-1.92.64-3.01.27-.74,0-1.28-.18-1.64-.55-.37-.36-.92-.73-1.64-1.1-1.46-.73-3.29-.82-5.48-.27s-4.39.64-6.58.27c-2.93-.73-5.58-1.46-7.95-2.19-2.38-.73-4.66-1.1-6.85-1.1-5.85,0-11.7.27-17.54.82-5.85.55-11.7,1.19-17.54,1.92-1.83,4.03-4.11,8.04-6.85,12.06-2.74,4.03-4.48,8.22-5.21,12.61-4.03,3.29-7.4,7.04-10.14,11.24-2.74,4.21-5.3,8.59-7.67,13.16-2.38,4.57-4.85,9.23-7.4,13.98-2.56,4.75-5.48,8.95-8.77,12.61v3.29c-3.29,2.92-6.12,6.21-8.5,9.87-2.38,3.65-4.85,7.31-7.4,10.96-2.56,3.65-5.4,6.94-8.5,9.87-3.11,2.92-6.85,5.11-11.24,6.58-1.83.73-3.2,1.92-4.11,3.56-.92,1.64-2.29,1.73-4.11.27,0-1.47.63-2.29,1.92-2.47,1.28-.19,2.1-1.01,2.47-2.47-1.1-1.1-2.66-2.38-4.66-3.84-2.01-1.46-3.56-1.1-4.66,1.1-.74-.37-1.01-.82-.82-1.37.18-.55-.09-.82-.82-.82-1.83,1.46-3.11,2.83-3.84,4.11-.74,1.28-1.64,2.83-2.74,4.66,0,1.1.45,1.55,1.37,1.37.91-.19,1.18.45.82,1.92-1.1.73-1.92,1.64-2.47,2.74-.55,1.1-1.37,2-2.47,2.74-1.83-.37-2.92-1.28-3.29-2.74-.36-1.46-1.46-2.01-3.29-1.64-1.82,1.46-2.55,3.2-2.19,5.21.37,2-.91,3.02-3.84,3.02-2.92-2.19-5.29-4.57-7.13-7.13-1.82-2.56-4.93-3.48-9.32-2.74-.73-3.66-1.1-7.59-1.1-11.79s.37-8.32,1.1-12.33ZM29.89,330.04c-.73-.36-1.28-.82-1.64-1.37-.36-.55-.91-.82-1.64-.82v2.19c.74,0,1.37.37,1.92,1.1.55.74,1.01.37,1.37-1.1ZM51.82,472.03c.73-.74,1.46-1.28,2.19-1.64.73-.37.91-1.1.55-2.19-2.19,0-3.02-.37-2.47-1.1.55-.74.45-1.46-.27-2.19-1.1,0-2.01.36-2.74,1.1-.74.73-1.47,1.46-2.19,2.19,1.82-.74,3.02-.64,3.56.27.55.91,1,2.1,1.37,3.56ZM263.43,106.92c-2.93.74-3.84,2.01-2.74,3.84-.74,0-1.1.19-1.1.55,1.1-.36,2.1-1,3.02-1.92s1.18-1.73.82-2.47ZM266.17,89.37c1.46-2.92,1.64-4.29.55-4.11-1.1.19-1.28,1.56-.55,4.11ZM349.5,139.26c-.37-.36-1.28-.36-2.74,0-1.47.37-2.93.92-4.39,1.64-1.83.74-3.2,1.64-4.11,2.74-.92,1.1-1.74,2.01-2.47,2.74,2.92-1.46,5.29-2.74,7.13-3.84,1.82-1.1,4.02-2.19,6.58-3.29ZM385.14,217.66c-.74,0-1.28.27-1.64.82-.37.55-.92,1.19-1.64,1.92.36.37.91.19,1.64-.55.73-.73,1.28-1.46,1.64-2.19ZM390.07,117.33c-1.83,0-3.29.46-4.39,1.37-1.1.92-2.19,1.74-3.29,2.47,2.19,0,3.74-.45,4.66-1.37s1.92-1.73,3.02-2.47Z"/></svg>