<?xml version="1.0" encoding="UTF-8"?><svg xmlns="http://www.w3.org/2000/svg" viewBox="0 0 500 500"><defs><style>.cls-1{fill:#f2f1f1;}.cls-2{fill:#804099;}</style></defs><g id="Layer_2"><path class="cls-1" d="M5.7,314.26h2.24c.25-2.23.75-4.15,1.49-5.75.75-1.61,1.62-3.16,2.62-4.64,1-4.7,2.62-9.72,4.86-15.03,2.24-5.32,3.74-10.45,4.48-15.41.75,0,1.06-.31.93-.93-.12-.62.19-.93.93-.93,1.24-4.7,2.8-9.03,4.67-12.99,1.87-3.96,3.55-8.17,5.04-12.62,0-.49-.31-.68-.93-.56-.62.13-.81-.06-.56-.56,1.99-.99,2.8-2.04,2.43-3.16-.37-1.11-1.25-2.35-2.62-3.71-1.37-1.36-2.8-2.72-4.3-4.08-1.49-1.36-2.37-2.78-2.62-4.27-.99.5-1.99.5-2.99,0-.99-.49-1.99-.86-2.99-1.11.75-3.46.62-6.55-.37-9.28-.75,0-1.18.25-1.31.74-.12.5-.56.74-1.31.74-1.24-1.48-1.55-3.09-.93-4.83.62-1.73.19-3.09-1.31-4.08.25-.74.44-1.17.56-1.3.13-.12.44-.43.93-.93-.25-.99-.56-1.24-.93-.74-.37.5-.56.25-.56-.74,1.75-2.72,3.92-4.58,6.54-5.57,2.62-.99,5.66-1.86,9.15-2.6,0-.74-.25-1.24-.75-1.48-.5-.24-.62-.74-.37-1.48,5.98.5,10.96-.31,14.94-2.41,3.98-2.1,8.34-3.77,13.08-5.01,1.49-6.68,3.86-12.44,7.1-17.26,3.23-4.83,5.98-10.33,8.22-16.52-.5-.24-.93-.31-1.31-.19-.37.13-.56-.31-.56-1.3,0-.74.31-1.11.93-1.11s1.31-.12,2.05-.37c6.22-11.88,11.96-24,17.19-36.38,5.23-12.37,10.46-24.87,15.69-37.49,0-.49.12-.8.37-.93.25-.12.12-.31-.37-.56,4.73-9.4,9.96-19.12,15.69-29.14,5.73-10.02,9.96-21.22,12.7-33.6,2.49-1.98,5.23-3.34,8.22-4.08s6.1-1.73,9.34-2.97c1.24,1.24,2.67,1.61,4.3,1.11,1.62-.49,3.05.13,4.3,1.86,1.24-.49,2.11-.74,2.62-.74s1.37.25,2.62.74c.5.25.75.99.75,2.23,1.74-.49,2.92-.86,3.55-1.11.62-.24,1.55-.24,2.8,0,.5,1.24,1.31,2.48,2.43,3.71,1.12,1.24,2.43,1.73,3.92,1.48l.75-.74c.25-.24.5-.37.75-.37,1.49.5,2.43,1.48,2.8,2.97s.68,3.1.93,4.83c2.24,2.48,3.55,5.26,3.92,8.35.37,3.1,1.68,5.63,3.92,7.61-.5.5-.75.93-.75,1.3s-.25.81-.75,1.3c-.25.5-.19.87.19,1.11.37.25.56.62.56,1.11-1,1.48-1.49,3.4-1.49,5.75s-.62,4.15-1.87,5.38c.5,2.97.12,5.88-1.12,8.72-1.25,2.85-2.12,6-2.62,9.47-.25.74-.19,1.3.19,1.67.37.37.43.81.19,1.3-.5,1.98-1.62,3.47-3.36,4.45-1.75.99-2.99,2.6-3.74,4.83-.25.74-.31,1.55-.19,2.41.12.87.06,1.67-.19,2.41-.75,2.73-2,5.14-3.74,7.24-1.75,2.11-2.74,4.27-2.99,6.5-2,2.23-3.24,5.14-3.74,8.72-.5,3.59-1.87,6.37-4.11,8.35-.75.5-.75.93,0,1.3s.75.68,0,.93c-2.74,2.97-4.86,6-6.35,9.09-1.49,3.1-3.24,6.25-5.23,9.47,4.23-.24,8.78-1.05,13.64-2.41,4.86-1.36,9.15-3.03,12.89-5.01,1.99-2.23,4.42-4.21,7.29-5.94,2.86-1.73,5.85-3.4,8.97-5.01,3.11-1.61,6.16-3.28,9.15-5.01,2.99-1.73,5.6-3.83,7.85-6.31,1.24.25,2.05.13,2.43-.37.37-.49.93-.62,1.68-.37.99-.24,1.49-.99,1.49-2.23,11.45-7.18,23.29-13.92,35.49-20.23,12.2-6.31,24.28-12.81,36.24-19.49.5-1.98,1.37-3.34,2.62-4.08,1.24-.74,2.62-1.36,4.11-1.86.25-2.47,1.31-4.45,3.18-5.94s3.98-2.53,6.35-3.16c2.36-.62,4.92-.93,7.66-.93s5.23.13,7.47.37c.5,1.98,1.43,3.34,2.8,4.08,1.37.74,2.74,1.48,4.11,2.23,1.37.74,2.55,1.73,3.55,2.97.99,1.24,1.49,3.1,1.49,5.57.5.5.99.87,1.49,1.11.5.25.99.62,1.49,1.11,0,2.48.62,4.27,1.87,5.38,1.24,1.11,2.24,2.41,2.99,3.9,0,.74-.25,1.3-.75,1.67-.5.37-.5.93,0,1.67.25.5.81.43,1.68-.19.87-.62,1.55-.56,2.05.19-1.25,2.73-2.56,5.63-3.92,8.72-1.37,3.1-3.3,5.63-5.79,7.61v2.97c-2.24,2.23-4.61,4.33-7.1,6.31-2.49,1.98-4.48,4.33-5.98,7.05-4.24,2.23-8.03,4.89-11.39,7.98-3.36,3.1-7.54,5.51-12.52,7.24-.25.74-.56,1.48-.93,2.23s-.81,1.36-1.31,1.86c-2.49.74-4.67,1.67-6.54,2.78s-3.43,2.66-4.67,4.64c-4.48,1.48-8.1,3.96-10.83,7.42-11.96,5.94-23.41,12.13-34.37,18.56-10.96,6.44-22.29,12.62-34,18.56-1.25,1.24-2.62,2.23-4.11,2.97-1.49.74-2.87,1.61-4.11,2.6h-2.62c-3.49,2.23-6.67,4.03-9.53,5.38-2.87,1.36-6.04,3.03-9.53,5.01,1.49,1.48,3.23,2.54,5.23,3.16,1.99.62,4.17,1.11,6.54,1.48,2.36.37,4.79.74,7.29,1.11,2.49.37,4.73,1.06,6.72,2.04,4.23-.49,8.53-.31,12.89.56,4.36.87,8.41,1.8,12.14,2.78.99.5,1.93.68,2.8.56.87-.12,1.8.06,2.8.56.25,0,1.37.5,3.36,1.48.75.5,1.24.81,1.49.93.25.13.75-.06,1.49-.56,1.74,1.48,3.98,2.41,6.72,2.78,2.74.37,4.98,1.43,6.72,3.16,3.74,1.24,8.03,2.54,12.89,3.9,4.86,1.36,9.28,3.4,13.26,6.13.99-.49,1.99-.31,2.99.56.99.87,1.74,1.67,2.24,2.41.75-.24,1.55-.06,2.43.56.87.62,1.55,1.18,2.05,1.67,2.74,1.48,5.6,2.66,8.59,3.53,2.99.87,5.1,2.78,6.35,5.75-1.25-.49-2.12-.43-2.62.19-.5.62-1.12.68-1.87.19.25.5.19,1.06-.19,1.67-.37.62-.31.93.19.93-2.24.74-4.67,1.61-7.29,2.6-2.62.99-5.04,2.23-7.29,3.71-.25.74-.06,1.06.56.93.62-.12.81.19.56.93-3.99.5-8.35.56-13.08.19-4.73-.37-9.47-.31-14.2.19-.25-.24-.37-.74-.37-1.48-1.25.5-2.68.93-4.3,1.3-1.62.37-2.68-.06-3.18-1.3-.5.25-.88.56-1.12.93-.25.37-.62.81-1.12,1.3-3.74-.74-7.35-1.61-10.83-2.6-3.49-.99-6.98-.62-10.46,1.11-2-.24-4.24-.62-6.72-1.11-2.49-.49-4.61-.86-6.35-1.11-1.75,0-3.8-.37-6.16-1.11-2.37-.74-4.42-1.24-6.16-1.48-.25,0-.37.06-.37.19s-.13.19-.37.19h-.37c-1.25,0-2.37-.24-3.36-.74-1-.49-2.37-.74-4.11-.74-1.75.25-3.05.37-3.92.37s-2.05-.24-3.55-.74c-5.73-1.24-10.96-1.98-15.69-2.23-4.73-.24-10.34-.62-16.81-1.11-.5,0-1-.12-1.49-.37-.5-.24-1-.37-1.49-.37s-1.06.19-1.68.56c-.62.37-1.31.43-2.05.19-.5,0-.88-.12-1.12-.37-.25-.24-.62-.49-1.12-.74-1-.49-2.24-.56-3.74-.19s-2.99.43-4.48.19c-2-.49-3.8-.99-5.42-1.48-1.62-.49-3.18-.74-4.67-.74-3.99,0-7.97.19-11.96.56-3.99.37-7.97.81-11.96,1.3-1.25,2.73-2.8,5.45-4.67,8.17-1.87,2.73-3.05,5.57-3.55,8.54-2.74,2.23-5.04,4.77-6.91,7.61-1.87,2.85-3.61,5.82-5.23,8.91-1.62,3.1-3.3,6.25-5.04,9.47-1.75,3.21-3.74,6.06-5.98,8.54v2.23c-2.24,1.98-4.17,4.21-5.79,6.68-1.62,2.47-3.3,4.95-5.04,7.42-1.75,2.47-3.68,4.7-5.79,6.68-2.12,1.98-4.67,3.46-7.66,4.45-1.25.49-2.18,1.3-2.8,2.41-.62,1.11-1.56,1.17-2.8.19,0-.99.43-1.55,1.31-1.67.87-.13,1.43-.68,1.68-1.67-.75-.74-1.81-1.61-3.18-2.6-1.37-.99-2.43-.74-3.18.74-.5-.25-.69-.56-.56-.93.12-.37-.06-.56-.56-.56-1.25.99-2.12,1.91-2.62,2.78-.5.86-1.12,1.91-1.87,3.16,0,.74.31,1.05.93.93.62-.13.81.31.56,1.3-.75.49-1.31,1.11-1.68,1.86s-.93,1.36-1.68,1.86c-1.25-.25-1.99-.87-2.24-1.86-.25-.99-.99-1.36-2.24-1.11-1.24.99-1.74,2.16-1.49,3.53.25,1.36-.62,2.04-2.62,2.04-1.99-1.48-3.61-3.1-4.86-4.83-1.24-1.73-3.36-2.35-6.35-1.86-.5-2.48-.75-5.14-.75-7.98s.25-5.63.75-8.35h0ZM23.26,226.65c-.5-.24-.87-.56-1.12-.93-.25-.37-.62-.56-1.12-.56v1.48c.5,0,.93.25,1.31.74.37.5.69.25.93-.74h0ZM38.2,322.8c.5-.5.99-.87,1.49-1.11.5-.25.62-.74.37-1.48-1.49,0-2.05-.25-1.68-.74.37-.5.31-.99-.19-1.48-.75,0-1.37.24-1.87.74-.5.49-1,.99-1.49,1.48,1.24-.5,2.05-.43,2.43.19.37.62.68,1.42.93,2.41ZM182.41,75.57c-2,.5-2.62,1.36-1.87,2.6-.5,0-.75.13-.75.37.75-.24,1.43-.68,2.05-1.3s.81-1.17.56-1.67h0ZM184.28,63.69c.99-1.98,1.12-2.91.37-2.78-.75.13-.88,1.06-.37,2.78ZM241.06,97.47c-.25-.24-.88-.24-1.87,0-1,.25-2,.62-2.99,1.11-1.25.5-2.18,1.11-2.8,1.86-.62.74-1.18,1.36-1.68,1.86,1.99-.99,3.61-1.86,4.86-2.6,1.24-.74,2.74-1.48,4.48-2.23ZM265.35,150.55c-.5,0-.88.19-1.12.56-.25.37-.62.81-1.12,1.3.25.25.62.13,1.12-.37s.87-.99,1.12-1.48h0ZM268.71,82.62c-1.25,0-2.24.31-2.99.93-.75.62-1.49,1.18-2.24,1.67,1.49,0,2.55-.31,3.18-.93s1.31-1.17,2.05-1.67Z"/><path class="cls-1" d="M129.07,474.58h2.48c.28-2.46.83-4.58,1.65-6.35.83-1.78,1.79-3.48,2.89-5.12,1.1-5.19,2.89-10.73,5.36-16.6,2.48-5.87,4.13-11.54,4.95-17.01.83,0,1.17-.34,1.03-1.02-.14-.68.21-1.02,1.03-1.02,1.37-5.19,3.09-9.97,5.16-14.35,2.06-4.37,3.92-9.02,5.57-13.94,0-.54-.35-.75-1.03-.61-.69.14-.9-.06-.62-.61,2.2-1.09,3.09-2.25,2.68-3.48s-1.38-2.59-2.89-4.1c-1.51-1.5-3.09-3-4.74-4.51-1.65-1.5-2.62-3.07-2.89-4.71-1.1.55-2.2.55-3.3,0-1.1-.54-2.2-.95-3.3-1.23.83-3.82.69-7.24-.41-10.25-.83,0-1.3.28-1.44.82-.14.55-.62.82-1.44.82-1.37-1.64-1.72-3.41-1.03-5.33.69-1.91.21-3.41-1.44-4.51.28-.82.48-1.29.62-1.43.14-.13.48-.47,1.03-1.02-.27-1.09-.62-1.36-1.03-.82-.41.55-.62.28-.62-.82,1.93-3,4.33-5.05,7.22-6.15,2.89-1.09,6.25-2.05,10.11-2.87,0-.82-.28-1.36-.83-1.64-.55-.27-.69-.82-.41-1.64,6.6.55,12.1-.34,16.5-2.66,4.4-2.32,9.21-4.16,14.44-5.53,1.65-7.38,4.26-13.73,7.84-19.06,3.57-5.33,6.6-11.41,9.08-18.24-.55-.27-1.03-.34-1.44-.2-.41.14-.62-.34-.62-1.43,0-.82.34-1.23,1.03-1.23s1.44-.13,2.27-.41c6.87-13.12,13.2-26.51,18.98-40.18,5.78-13.66,11.55-27.47,17.33-41.41,0-.54.14-.88.41-1.02.27-.13.14-.34-.41-.61,5.22-10.38,11-21.11,17.33-32.18,6.32-11.07,11-23.43,14.03-37.1,2.75-2.18,5.78-3.69,9.08-4.51s6.74-1.91,10.31-3.28c1.37,1.37,2.95,1.78,4.74,1.23,1.79-.54,3.37.14,4.74,2.05,1.37-.54,2.33-.82,2.89-.82s1.51.28,2.89.82c.55.28.83,1.1.83,2.46,1.92-.54,3.23-.95,3.92-1.23.68-.27,1.72-.27,3.09,0,.55,1.37,1.44,2.74,2.68,4.1,1.24,1.37,2.68,1.92,4.33,1.64l.83-.82c.27-.27.55-.41.83-.41,1.65.55,2.68,1.64,3.09,3.28s.75,3.42,1.03,5.33c2.48,2.74,3.92,5.81,4.33,9.22.41,3.42,1.86,6.22,4.33,8.4-.55.55-.83,1.02-.83,1.43s-.28.89-.83,1.43c-.28.55-.21.96.21,1.23.41.28.62.69.62,1.23-1.1,1.64-1.65,3.76-1.65,6.35s-.69,4.58-2.06,5.94c.55,3.28.14,6.5-1.24,9.63-1.38,3.15-2.34,6.63-2.89,10.45-.28.82-.21,1.43.21,1.84s.48.89.21,1.43c-.55,2.19-1.79,3.83-3.71,4.92-1.93,1.1-3.3,2.87-4.13,5.33-.28.82-.35,1.71-.21,2.66.14.96.06,1.84-.21,2.66-.83,3.01-2.2,5.68-4.13,7.99-1.93,2.33-3.03,4.71-3.3,7.17-2.2,2.46-3.58,5.68-4.13,9.63-.55,3.96-2.06,7.04-4.54,9.22-.83.55-.83,1.02,0,1.43s.83.76,0,1.02c-3.03,3.28-5.36,6.63-7.01,10.04-1.65,3.42-3.58,6.91-5.78,10.45,4.67-.27,9.7-1.16,15.06-2.66,5.36-1.5,10.11-3.34,14.23-5.53,2.2-2.46,4.88-4.64,8.05-6.56,3.16-1.91,6.46-3.75,9.9-5.53,3.44-1.77,6.81-3.62,10.11-5.53,3.3-1.91,6.19-4.23,8.66-6.97,1.37.28,2.27.14,2.68-.41.41-.54,1.03-.68,1.86-.41,1.1-.27,1.65-1.09,1.65-2.46,12.65-7.92,25.72-15.37,39.2-22.34,13.47-6.97,26.82-14.14,40.02-21.52.55-2.18,1.51-3.69,2.89-4.51,1.37-.82,2.89-1.5,4.54-2.05.27-2.73,1.44-4.92,3.51-6.56s4.4-2.8,7.01-3.48c2.61-.68,5.43-1.02,8.46-1.02s5.78.14,8.25.41c.55,2.19,1.58,3.69,3.09,4.51,1.51.82,3.02,1.64,4.54,2.46,1.51.82,2.82,1.92,3.92,3.28,1.1,1.37,1.65,3.42,1.65,6.15.55.55,1.1.96,1.65,1.23.55.28,1.1.69,1.65,1.23,0,2.74.68,4.71,2.06,5.94,1.37,1.23,2.48,2.66,3.3,4.3,0,.82-.28,1.43-.83,1.84-.55.41-.55,1.02,0,1.84.27.55.89.48,1.86-.2.96-.68,1.72-.61,2.27.2-1.38,3.01-2.82,6.22-4.33,9.63-1.51,3.42-3.65,6.22-6.4,8.4v3.28c-2.48,2.46-5.09,4.78-7.84,6.97-2.75,2.19-4.95,4.78-6.6,7.79-4.68,2.46-8.87,5.4-12.58,8.81-3.71,3.42-8.32,6.09-13.82,7.99-.28.82-.62,1.64-1.03,2.46s-.9,1.51-1.44,2.05c-2.75.82-5.16,1.84-7.22,3.07-2.06,1.23-3.78,2.94-5.16,5.12-4.95,1.64-8.94,4.37-11.97,8.2-13.2,6.56-25.86,13.39-37.96,20.5-12.11,7.11-24.62,13.94-37.55,20.5-1.38,1.37-2.89,2.46-4.54,3.28-1.65.82-3.17,1.78-4.54,2.87h-2.89c-3.85,2.46-7.36,4.45-10.52,5.94-3.17,1.51-6.67,3.35-10.52,5.53,1.65,1.64,3.57,2.81,5.78,3.48,2.2.69,4.6,1.23,7.22,1.64,2.61.41,5.29.82,8.05,1.23,2.75.41,5.22,1.17,7.43,2.25,4.67-.54,9.42-.34,14.23.61,4.81.96,9.28,1.99,13.41,3.07,1.1.55,2.13.76,3.09.61.96-.13,1.99.07,3.09.61.27,0,1.51.55,3.71,1.64.83.55,1.37.89,1.65,1.02.27.14.83-.06,1.65-.61,1.92,1.64,4.4,2.66,7.43,3.07,3.02.41,5.5,1.58,7.43,3.48,4.13,1.37,8.87,2.81,14.23,4.3,5.36,1.51,10.24,3.76,14.65,6.76,1.1-.54,2.2-.34,3.3.61,1.1.96,1.92,1.84,2.48,2.66.83-.27,1.72-.06,2.68.61.96.69,1.72,1.3,2.27,1.84,3.02,1.64,6.19,2.94,9.49,3.89,3.3.96,5.63,3.07,7.01,6.35-1.38-.54-2.34-.47-2.89.2-.55.69-1.24.76-2.06.2.27.55.21,1.17-.21,1.84-.41.69-.35,1.02.21,1.02-2.48.82-5.16,1.78-8.05,2.87-2.89,1.1-5.57,2.46-8.05,4.1-.28.82-.07,1.17.62,1.02.68-.13.89.2.62,1.02-4.4.55-9.22.61-14.44.2-5.23-.41-10.46-.34-15.68.2-.28-.27-.41-.82-.41-1.64-1.38.55-2.96,1.02-4.74,1.43-1.79.41-2.96-.06-3.51-1.43-.55.28-.97.61-1.24,1.02-.28.41-.69.89-1.24,1.43-4.13-.82-8.12-1.77-11.97-2.87-3.85-1.09-7.7-.68-11.55,1.23-2.2-.27-4.68-.68-7.43-1.23-2.75-.54-5.09-.95-7.01-1.23-1.93,0-4.2-.41-6.81-1.23-2.62-.82-4.89-1.36-6.81-1.64-.28,0-.41.07-.41.2s-.14.2-.41.2h-.41c-1.38,0-2.62-.27-3.71-.82-1.1-.54-2.62-.82-4.54-.82-1.93.28-3.37.41-4.33.41s-2.27-.27-3.92-.82c-6.33-1.36-12.11-2.18-17.33-2.46-5.23-.27-11.42-.68-18.57-1.23-.55,0-1.1-.13-1.65-.41-.55-.27-1.1-.41-1.65-.41s-1.17.2-1.86.61c-.69.41-1.44.48-2.27.2-.55,0-.97-.13-1.24-.41-.28-.27-.69-.54-1.24-.82-1.1-.54-2.48-.61-4.13-.2s-3.3.48-4.95.2c-2.2-.54-4.2-1.09-5.98-1.64-1.79-.54-3.51-.82-5.16-.82-4.4,0-8.81.2-13.2.61-4.4.41-8.81.89-13.2,1.43-1.38,3.01-3.09,6.01-5.16,9.02-2.06,3.01-3.37,6.15-3.92,9.43-3.03,2.46-5.57,5.27-7.63,8.4-2.06,3.15-3.99,6.42-5.78,9.84-1.79,3.42-3.65,6.91-5.57,10.45-1.93,3.55-4.13,6.69-6.6,9.43v2.46c-2.48,2.18-4.61,4.64-6.4,7.38-1.79,2.73-3.65,5.46-5.57,8.2-1.93,2.73-4.06,5.19-6.4,7.38-2.34,2.18-5.16,3.82-8.46,4.92-1.38.54-2.41,1.43-3.09,2.66-.69,1.23-1.72,1.29-3.09.2,0-1.1.48-1.71,1.44-1.84.96-.14,1.58-.76,1.86-1.84-.83-.82-2-1.78-3.51-2.87-1.51-1.1-2.68-.82-3.51.82-.55-.28-.76-.61-.62-1.02.14-.41-.07-.61-.62-.61-1.38,1.09-2.34,2.11-2.89,3.07-.55.95-1.24,2.11-2.06,3.48,0,.82.34,1.16,1.03,1.02.68-.14.89.34.62,1.43-.83.54-1.44,1.23-1.86,2.05-.41.82-1.03,1.5-1.86,2.05-1.38-.28-2.2-.96-2.48-2.05-.27-1.1-1.1-1.51-2.48-1.23-1.37,1.09-1.92,2.39-1.65,3.89.28,1.5-.68,2.25-2.89,2.25-2.2-1.64-3.98-3.42-5.36-5.33-1.37-1.92-3.71-2.6-7.01-2.05-.55-2.74-.83-5.68-.83-8.81s.28-6.22.83-9.22h0ZM148.47,377.83c-.55-.27-.96-.61-1.24-1.02-.27-.41-.68-.61-1.24-.61v1.64c.55,0,1.03.28,1.44.82.41.55.76.28,1.03-.82ZM164.97,484.01c.55-.55,1.1-.96,1.65-1.23.55-.28.68-.82.41-1.64-1.65,0-2.27-.28-1.86-.82.41-.55.34-1.1-.21-1.64-.83,0-1.51.27-2.06.82-.55.54-1.1,1.09-1.65,1.64,1.37-.55,2.27-.48,2.68.2.41.68.75,1.57,1.03,2.66ZM324.23,210.97c-2.2.55-2.89,1.51-2.06,2.87-.55,0-.83.14-.83.41.83-.27,1.58-.75,2.27-1.43.68-.68.89-1.29.62-1.84ZM326.3,197.85c1.1-2.18,1.24-3.21.41-3.07-.83.14-.97,1.17-.41,3.07ZM389.01,235.16c-.28-.27-.97-.27-2.06,0-1.1.28-2.2.69-3.3,1.23-1.38.55-2.41,1.23-3.09,2.05-.69.82-1.31,1.51-1.86,2.05,2.2-1.09,3.98-2.05,5.36-2.87,1.37-.82,3.02-1.64,4.95-2.46ZM415.83,293.79c-.55,0-.97.2-1.24.61-.28.41-.69.89-1.24,1.43.27.28.68.14,1.24-.41s.96-1.09,1.24-1.64ZM419.54,218.76c-1.38,0-2.48.35-3.3,1.02-.83.69-1.65,1.3-2.48,1.84,1.65,0,2.82-.34,3.51-1.02.68-.68,1.44-1.29,2.27-1.84Z"/></g><g id="Layer_1"><path class="cls-2" d="M.75,306.63h2.24c.25-2.23.75-4.15,1.49-5.75.75-1.61,1.62-3.16,2.62-4.64,1-4.7,2.62-9.72,4.86-15.03,2.24-5.32,3.74-10.45,4.48-15.41.75,0,1.06-.31.93-.93-.12-.62.19-.93.93-.93,1.24-4.7,2.8-9.03,4.67-12.99,1.87-3.96,3.55-8.17,5.04-12.62,0-.49-.31-.68-.93-.56-.62.13-.81-.06-.56-.56,1.99-.99,2.8-2.04,2.43-3.16-.37-1.11-1.25-2.35-2.62-3.71-1.37-1.36-2.8-2.72-4.3-4.08-1.49-1.36-2.37-2.78-2.62-4.27-.99.5-1.99.5-2.99,0-.99-.49-1.99-.86-2.99-1.11.75-3.46.62-6.55-.37-9.28-.75,0-1.18.25-1.31.74-.12.5-.56.74-1.31.74-1.24-1.48-1.55-3.09-.93-4.83.62-1.73.19-3.09-1.31-4.08.25-.74.44-1.17.56-1.3.13-.12.44-.43.93-.93-.25-.99-.56-1.24-.93-.74-.37.5-.56.25-.56-.74,1.75-2.72,3.92-4.58,6.54-5.57,2.62-.99,5.66-1.86,9.15-2.6,0-.74-.25-1.24-.75-1.48-.5-.24-.62-.74-.37-1.48,5.98.5,10.96-.31,14.94-2.41,3.98-2.1,8.34-3.77,13.08-5.01,1.49-6.68,3.86-12.44,7.1-17.26,3.23-4.83,5.98-10.33,8.22-16.52-.5-.24-.93-.31-1.31-.19-.37.13-.56-.31-.56-1.3,0-.74.31-1.11.93-1.11s1.31-.12,2.05-.37c6.22-11.88,11.96-24,17.19-36.38,5.23-12.37,10.46-24.87,15.69-37.49,0-.49.12-.8.37-.93.25-.12.12-.31-.37-.56,4.73-9.4,9.96-19.12,15.69-29.14,5.73-10.02,9.96-21.22,12.7-33.6,2.49-1.98,5.23-3.34,8.22-4.08s6.1-1.73,9.34-2.97c1.24,1.24,2.67,1.61,4.3,1.11,1.62-.49,3.05.13,4.3,1.86,1.24-.49,2.11-.74,2.62-.74s1.37.25,2.62.74c.5.25.75.99.75,2.23,1.74-.49,2.92-.86,3.55-1.11.62-.24,1.55-.24,2.8,0,.5,1.24,1.31,2.48,2.43,3.71,1.12,1.24,2.43,1.73,3.92,1.48l.75-.74c.25-.24.5-.37.75-.37,1.49.5,2.43,1.48,2.8,2.97s.68,3.1.93,4.83c2.24,2.48,3.55,5.26,3.92,8.35.37,3.1,1.68,5.63,3.92,7.61-.5.5-.75.93-.75,1.3s-.25.81-.75,1.3c-.25.5-.19.87.19,1.11.37.25.56.62.56,1.11-1,1.48-1.49,3.4-1.49,5.75s-.62,4.15-1.87,5.38c.5,2.97.12,5.88-1.12,8.72-1.25,2.85-2.12,6-2.62,9.47-.25.74-.19,1.3.19,1.67.37.37.43.81.19,1.3-.5,1.98-1.62,3.47-3.36,4.45-1.75.99-2.99,2.6-3.74,4.83-.25.74-.31,1.55-.19,2.41.12.87.06,1.67-.19,2.41-.75,2.73-2,5.14-3.74,7.24-1.75,2.11-2.74,4.27-2.99,6.5-2,2.23-3.24,5.14-3.74,8.72-.5,3.59-1.87,6.37-4.11,8.35-.75.5-.75.93,0,1.3s.75.68,0,.93c-2.74,2.97-4.86,6-6.35,9.09-1.49,3.1-3.24,6.25-5.23,9.47,4.23-.24,8.78-1.05,13.64-2.41,4.86-1.36,9.15-3.03,12.89-5.01,1.99-2.23,4.42-4.21,7.29-5.94,2.86-1.73,5.85-3.4,8.97-5.01,3.11-1.61,6.16-3.28,9.15-5.01,2.99-1.73,5.6-3.83,7.85-6.31,1.24.25,2.05.13,2.43-.37.37-.49.93-.62,1.68-.37.99-.24,1.49-.99,1.49-2.23,11.45-7.18,23.29-13.92,35.49-20.23,12.2-6.31,24.28-12.81,36.24-19.49.5-1.98,1.37-3.34,2.62-4.08,1.24-.74,2.62-1.36,4.11-1.86.25-2.47,1.31-4.45,3.18-5.94s3.98-2.53,6.35-3.16c2.36-.62,4.92-.93,7.66-.93s5.23.13,7.47.37c.5,1.98,1.43,3.34,2.8,4.08,1.37.74,2.74,1.48,4.11,2.23,1.37.74,2.55,1.73,3.55,2.97.99,1.24,1.49,3.1,1.49,5.57.5.5.99.87,1.49,1.11.5.25.99.62,1.49,1.11,0,2.48.62,4.27,1.87,5.38,1.24,1.11,2.24,2.41,2.99,3.9,0,.74-.25,1.3-.75,1.67-.5.37-.5.93,0,1.67.25.5.81.43,1.68-.19.87-.62,1.55-.56,2.05.19-1.25,2.73-2.56,5.63-3.92,8.72-1.37,3.1-3.3,5.63-5.79,7.61v2.97c-2.24,2.23-4.61,4.33-7.1,6.31-2.49,1.98-4.48,4.33-5.98,7.05-4.24,2.23-8.03,4.89-11.39,7.98-3.36,3.1-7.54,5.51-12.52,7.24-.25.74-.56,1.48-.93,2.23s-.81,1.36-1.31,1.86c-2.49.74-4.67,1.67-6.54,2.78s-3.43,2.66-4.67,4.64c-4.48,1.48-8.1,3.96-10.83,7.42-11.96,5.94-23.41,12.13-34.37,18.56-10.96,6.44-22.29,12.62-34,18.56-1.25,1.24-2.62,2.23-4.11,2.97-1.49.74-2.87,1.61-4.11,2.6h-2.62c-3.49,2.23-6.67,4.03-9.53,5.38-2.87,1.36-6.04,3.03-9.53,5.01,1.49,1.48,3.23,2.54,5.23,3.16,1.99.62,4.17,1.11,6.54,1.48,2.36.37,4.79.74,7.29,1.11,2.49.37,4.73,1.06,6.72,2.04,4.23-.49,8.53-.31,12.89.56,4.36.87,8.41,1.8,12.14,2.78.99.5,1.93.68,2.8.56.87-.12,1.8.06,2.8.56.25,0,1.37.5,3.36,1.48.75.5,1.24.81,1.49.93.25.13.75-.06,1.49-.56,1.74,1.48,3.98,2.41,6.72,2.78,2.74.37,4.98,1.43,6.72,3.16,3.74,1.24,8.03,2.54,12.89,3.9,4.86,1.36,9.28,3.4,13.26,6.13.99-.49,1.99-.31,2.99.56.99.87,1.74,1.67,2.24,2.41.75-.24,1.55-.06,2.43.56.87.62,1.55,1.18,2.05,1.67,2.74,1.48,5.6,2.66,8.59,3.53,2.99.87,5.1,2.78,6.35,5.75-1.25-.49-2.12-.43-2.62.19-.5.62-1.12.68-1.87.19.25.5.19,1.06-.19,1.67-.37.62-.31.93.19.93-2.24.74-4.67,1.61-7.29,2.6-2.62.99-5.04,2.23-7.29,3.71-.25.74-.06,1.06.56.93.62-.12.81.19.56.93-3.99.5-8.35.56-13.08.19-4.73-.37-9.47-.31-14.2.19-.25-.24-.37-.74-.37-1.48-1.25.5-2.68.93-4.3,1.3-1.62.37-2.68-.06-3.18-1.3-.5.25-.88.56-1.12.93-.25.37-.62.81-1.12,1.3-3.74-.74-7.35-1.61-10.83-2.6-3.49-.99-6.98-.62-10.46,1.11-2-.24-4.24-.62-6.72-1.11-2.49-.49-4.61-.86-6.35-1.11-1.75,0-3.8-.37-6.16-1.11-2.37-.74-4.42-1.24-6.16-1.48-.25,0-.37.06-.37.19s-.13.19-.37.19h-.37c-1.25,0-2.37-.24-3.36-.74-1-.49-2.37-.74-4.11-.74-1.75.25-3.05.37-3.92.37s-2.05-.24-3.55-.74c-5.73-1.24-10.96-1.98-15.69-2.23-4.73-.24-10.34-.62-16.81-1.11-.5,0-1-.12-1.49-.37-.5-.24-1-.37-1.49-.37s-1.06.19-1.68.56c-.62.37-1.31.43-2.05.19-.5,0-.88-.12-1.12-.37-.25-.24-.62-.49-1.12-.74-1-.49-2.24-.56-3.74-.19s-2.99.43-4.48.19c-2-.49-3.8-.99-5.42-1.48-1.62-.49-3.18-.74-4.67-.74-3.99,0-7.97.19-11.96.56-3.99.37-7.97.81-11.96,1.3-1.25,2.73-2.8,5.45-4.67,8.17-1.87,2.73-3.05,5.57-3.55,8.54-2.74,2.23-5.04,4.77-6.91,7.61-1.87,2.85-3.61,5.82-5.23,8.91-1.62,3.1-3.3,6.25-5.04,9.47-1.75,3.21-3.74,6.06-5.98,8.54v2.23c-2.24,1.98-4.17,4.21-5.79,6.68-1.62,2.47-3.3,4.95-5.04,7.42-1.75,2.47-3.68,4.7-5.79,6.68-2.12,1.98-4.67,3.46-7.66,4.45-1.25.49-2.18,1.3-2.8,2.41-.62,1.11-1.56,1.17-2.8.19,0-.99.43-1.55,1.31-1.67.87-.13,1.43-.68,1.68-1.67-.75-.74-1.81-1.61-3.18-2.6-1.37-.99-2.43-.74-3.18.74-.5-.25-.69-.56-.56-.93.12-.37-.06-.56-.56-.56-1.25.99-2.12,1.91-2.62,2.78-.5.86-1.12,1.91-1.87,3.16,0,.74.31,1.05.93.93.62-.13.81.31.56,1.3-.75.49-1.31,1.11-1.68,1.86s-.93,1.36-1.68,1.86c-1.25-.25-1.99-.87-2.24-1.86-.25-.99-.99-1.36-2.24-1.11-1.24.99-1.74,2.16-1.49,3.53.25,1.36-.62,2.04-2.62,2.04-1.99-1.48-3.61-3.1-4.86-4.83-1.24-1.73-3.36-2.35-6.35-1.86-.5-2.48-.75-5.14-.75-7.98s.25-5.63.75-8.35h0ZM18.31,219.02c-.5-.24-.87-.56-1.12-.93-.25-.37-.62-.56-1.12-.56v1.48c.5,0,.93.25,1.31.74.37.5.69.25.93-.74h0ZM33.25,315.16c.5-.5.99-.87,1.49-1.11.5-.25.62-.74.37-1.48-1.49,0-2.05-.25-1.68-.74.37-.5.31-.99-.19-1.48-.75,0-1.37.24-1.87.74-.5.49-1,.99-1.49,1.48,1.24-.5,2.05-.43,2.43.19.37.62.68,1.42.93,2.41ZM177.46,67.93c-2,.5-2.62,1.36-1.87,2.6-.5,0-.75.13-.75.37.75-.24,1.43-.68,2.05-1.3s.81-1.17.56-1.67h0ZM179.33,56.05c.99-1.98,1.12-2.91.37-2.78-.75.13-.88,1.06-.37,2.78ZM236.11,89.83c-.25-.24-.88-.24-1.87,0-1,.25-2,.62-2.99,1.11-1.25.5-2.18,1.11-2.8,1.86-.62.74-1.18,1.36-1.68,1.86,1.99-.99,3.61-1.86,4.86-2.6,1.24-.74,2.74-1.48,4.48-2.23ZM260.4,142.92c-.5,0-.88.19-1.12.56-.25.37-.62.81-1.12,1.3.25.25.62.13,1.12-.37s.87-.99,1.12-1.48h0ZM263.76,74.99c-1.25,0-2.24.31-2.99.93-.75.62-1.49,1.18-2.24,1.67,1.49,0,2.55-.31,3.18-.93s1.31-1.17,2.05-1.67Z"/><path class="cls-2" d="M124.12,466.95h2.48c.28-2.46.83-4.58,1.65-6.35.83-1.78,1.79-3.48,2.89-5.12,1.1-5.19,2.89-10.73,5.36-16.6,2.48-5.87,4.13-11.54,4.95-17.01.83,0,1.17-.34,1.03-1.02-.14-.68.21-1.02,1.03-1.02,1.37-5.19,3.09-9.97,5.16-14.35,2.06-4.37,3.92-9.02,5.57-13.94,0-.54-.35-.75-1.03-.61-.69.14-.9-.06-.62-.61,2.2-1.09,3.09-2.25,2.68-3.48s-1.38-2.59-2.89-4.1c-1.51-1.5-3.09-3-4.74-4.51-1.65-1.5-2.62-3.07-2.89-4.71-1.1.55-2.2.55-3.3,0-1.1-.54-2.2-.95-3.3-1.23.83-3.82.69-7.24-.41-10.25-.83,0-1.3.28-1.44.82-.14.55-.62.82-1.44.82-1.37-1.64-1.72-3.41-1.03-5.33.69-1.91.21-3.41-1.44-4.51.28-.82.48-1.29.62-1.43.14-.13.48-.47,1.03-1.02-.27-1.09-.62-1.36-1.03-.82-.41.55-.62.28-.62-.82,1.93-3,4.33-5.05,7.22-6.15,2.89-1.09,6.25-2.05,10.11-2.87,0-.82-.28-1.36-.83-1.64-.55-.27-.69-.82-.41-1.64,6.6.55,12.1-.34,16.5-2.66,4.4-2.32,9.21-4.16,14.44-5.53,1.65-7.38,4.26-13.73,7.84-19.06,3.57-5.33,6.6-11.41,9.08-18.24-.55-.27-1.03-.34-1.44-.2-.41.14-.62-.34-.62-1.43,0-.82.34-1.23,1.03-1.23s1.44-.13,2.27-.41c6.87-13.12,13.2-26.51,18.98-40.18,5.78-13.66,11.55-27.47,17.33-41.41,0-.54.14-.88.41-1.02.27-.13.14-.34-.41-.61,5.22-10.38,11-21.11,17.33-32.18,6.32-11.07,11-23.43,14.03-37.1,2.75-2.18,5.78-3.69,9.08-4.51s6.74-1.91,10.31-3.28c1.37,1.37,2.95,1.78,4.74,1.23,1.79-.54,3.37.14,4.74,2.05,1.37-.54,2.33-.82,2.89-.82s1.51.28,2.89.82c.55.28.83,1.1.83,2.46,1.92-.54,3.23-.95,3.92-1.23.68-.27,1.72-.27,3.09,0,.55,1.37,1.44,2.74,2.68,4.1,1.24,1.37,2.68,1.92,4.33,1.64l.83-.82c.27-.27.55-.41.83-.41,1.65.55,2.68,1.64,3.09,3.28s.75,3.42,1.03,5.33c2.48,2.74,3.92,5.81,4.33,9.22.41,3.42,1.86,6.22,4.33,8.4-.55.55-.83,1.02-.83,1.43s-.28.89-.83,1.43c-.28.55-.21.96.21,1.23.41.28.62.69.62,1.23-1.1,1.64-1.65,3.76-1.65,6.35s-.69,4.58-2.06,5.94c.55,3.28.14,6.5-1.24,9.63-1.38,3.15-2.34,6.63-2.89,10.45-.28.82-.21,1.43.21,1.84s.48.89.21,1.43c-.55,2.19-1.79,3.83-3.71,4.92-1.93,1.1-3.3,2.87-4.13,5.33-.28.82-.35,1.71-.21,2.66.14.96.06,1.84-.21,2.66-.83,3.01-2.2,5.68-4.13,7.99-1.93,2.33-3.03,4.71-3.3,7.17-2.2,2.46-3.58,5.68-4.13,9.63-.55,3.96-2.06,7.04-4.54,9.22-.83.55-.83,1.02,0,1.43s.83.76,0,1.02c-3.03,3.28-5.36,6.63-7.01,10.04-1.65,3.42-3.58,6.91-5.78,10.45,4.67-.27,9.7-1.16,15.06-2.66,5.36-1.5,10.11-3.34,14.23-5.53,2.2-2.46,4.88-4.64,8.05-6.56,3.16-1.91,6.46-3.75,9.9-5.53,3.44-1.77,6.81-3.62,10.11-5.53,3.3-1.91,6.19-4.23,8.66-6.97,1.37.28,2.27.14,2.68-.41.41-.54,1.03-.68,1.86-.41,1.1-.27,1.65-1.09,1.65-2.46,12.65-7.92,25.72-15.37,39.2-22.34,13.47-6.97,26.82-14.14,40.02-21.52.55-2.18,1.51-3.69,2.89-4.51,1.37-.82,2.89-1.5,4.54-2.05.27-2.73,1.44-4.92,3.51-6.56s4.4-2.8,7.01-3.48c2.61-.68,5.43-1.02,8.46-1.02s5.78.14,8.25.41c.55,2.19,1.58,3.69,3.09,4.51,1.51.82,3.02,1.64,4.54,2.46,1.51.82,2.82,1.92,3.92,3.28,1.1,1.37,1.65,3.42,1.65,6.15.55.55,1.1.96,1.65,1.23.55.28,1.1.69,1.65,1.23,0,2.74.68,4.71,2.06,5.94,1.37,1.23,2.48,2.66,3.3,4.3,0,.82-.28,1.43-.83,1.84-.55.41-.55,1.02,0,1.84.27.55.89.48,1.86-.2.96-.68,1.72-.61,2.27.2-1.38,3.01-2.82,6.22-4.33,9.63-1.51,3.42-3.65,6.22-6.4,8.4v3.28c-2.48,2.46-5.09,4.78-7.84,6.97-2.75,2.19-4.95,4.78-6.6,7.79-4.68,2.46-8.87,5.4-12.58,8.81-3.71,3.42-8.32,6.09-13.82,7.99-.28.82-.62,1.64-1.03,2.46s-.9,1.51-1.44,2.05c-2.75.82-5.16,1.84-7.22,3.07s-3.78,2.94-5.16,5.12c-4.95,1.64-8.94,4.37-11.97,8.2-13.2,6.56-25.86,13.39-37.96,20.5-12.11,7.11-24.62,13.94-37.55,20.5-1.38,1.37-2.89,2.46-4.54,3.28-1.65.82-3.17,1.78-4.54,2.87h-2.89c-3.85,2.46-7.36,4.45-10.52,5.94-3.17,1.51-6.67,3.35-10.52,5.53,1.65,1.64,3.57,2.81,5.78,3.48,2.2.69,4.6,1.23,7.22,1.64,2.61.41,5.29.82,8.05,1.23,2.75.41,5.22,1.17,7.43,2.25,4.67-.54,9.42-.34,14.23.61,4.81.96,9.28,1.99,13.41,3.07,1.1.55,2.13.76,3.09.61.96-.13,1.99.07,3.09.61.27,0,1.51.55,3.71,1.64.83.55,1.37.89,1.65,1.02.27.14.83-.06,1.65-.61,1.92,1.64,4.4,2.66,7.43,3.07,3.02.41,5.5,1.58,7.43,3.48,4.13,1.37,8.87,2.81,14.23,4.3,5.36,1.51,10.24,3.76,14.65,6.76,1.1-.54,2.2-.34,3.3.61,1.1.96,1.92,1.84,2.48,2.66.83-.27,1.72-.06,2.68.61.96.69,1.72,1.3,2.27,1.84,3.02,1.64,6.19,2.94,9.49,3.89,3.3.96,5.63,3.07,7.01,6.35-1.38-.54-2.34-.47-2.89.2-.55.69-1.24.76-2.06.2.27.55.21,1.17-.21,1.84-.41.69-.35,1.02.21,1.02-2.48.82-5.16,1.78-8.05,2.87-2.89,1.1-5.57,2.46-8.05,4.1-.28.82-.07,1.17.62,1.02.68-.13.89.2.62,1.02-4.4.55-9.22.61-14.44.2-5.23-.41-10.46-.34-15.68.2-.28-.27-.41-.82-.41-1.64-1.38.55-2.96,1.02-4.74,1.43-1.79.41-2.96-.06-3.51-1.43-.55.28-.97.61-1.24,1.02-.28.41-.69.89-1.24,1.43-4.13-.82-8.12-1.77-11.97-2.87-3.85-1.09-7.7-.68-11.55,1.23-2.2-.27-4.68-.68-7.43-1.23-2.75-.54-5.09-.95-7.01-1.23-1.93,0-4.2-.41-6.81-1.23-2.62-.82-4.89-1.36-6.81-1.64-.28,0-.41.07-.41.2s-.14.2-.41.2h-.41c-1.38,0-2.62-.27-3.71-.82-1.1-.54-2.62-.82-4.54-.82-1.93.28-3.37.41-4.33.41s-2.27-.27-3.92-.82c-6.33-1.36-12.11-2.18-17.33-2.46-5.23-.27-11.42-.68-18.57-1.23-.55,0-1.1-.13-1.65-.41-.55-.27-1.1-.41-1.65-.41s-1.17.2-1.86.61c-.69.41-1.44.48-2.27.2-.55,0-.97-.13-1.24-.41-.28-.27-.69-.54-1.24-.82-1.1-.54-2.48-.61-4.13-.2s-3.3.48-4.95.2c-2.2-.54-4.2-1.09-5.98-1.64-1.79-.54-3.51-.82-5.16-.82-4.4,0-8.81.2-13.2.61-4.4.41-8.81.89-13.2,1.43-1.38,3.01-3.09,6.01-5.16,9.02-2.06,3.01-3.37,6.15-3.92,9.43-3.03,2.46-5.57,5.27-7.63,8.4-2.06,3.15-3.99,6.42-5.78,9.84-1.79,3.42-3.65,6.91-5.57,10.45-1.93,3.55-4.13,6.69-6.6,9.43v2.46c-2.48,2.18-4.61,4.64-6.4,7.38-1.79,2.73-3.65,5.46-5.57,8.2-1.93,2.73-4.06,5.19-6.4,7.38-2.34,2.18-5.16,3.82-8.46,4.92-1.38.54-2.41,1.43-3.09,2.66-.69,1.23-1.72,1.29-3.09.2,0-1.1.48-1.71,1.44-1.84.96-.14,1.58-.76,1.86-1.84-.83-.82-2-1.78-3.51-2.87-1.51-1.1-2.68-.82-3.51.82-.55-.28-.76-.61-.62-1.02.14-.41-.07-.61-.62-.61-1.38,1.09-2.34,2.11-2.89,3.07-.55.95-1.24,2.11-2.06,3.48,0,.82.34,1.16,1.03,1.02.68-.14.89.34.62,1.43-.83.54-1.44,1.23-1.86,2.05-.41.82-1.03,1.5-1.86,2.05-1.38-.28-2.2-.96-2.48-2.05-.27-1.1-1.1-1.51-2.48-1.23-1.37,1.09-1.92,2.39-1.65,3.89.28,1.5-.68,2.25-2.89,2.25-2.2-1.64-3.98-3.42-5.36-5.33-1.37-1.92-3.71-2.6-7.01-2.05-.55-2.74-.83-5.68-.83-8.81s.28-6.22.83-9.22h0ZM143.52,370.19c-.55-.27-.96-.61-1.24-1.02-.27-.41-.68-.61-1.24-.61v1.64c.55,0,1.03.28,1.44.82.41.55.76.28,1.03-.82ZM160.02,476.38c.55-.55,1.1-.96,1.65-1.23.55-.28.68-.82.41-1.64-1.65,0-2.27-.28-1.86-.82.41-.55.34-1.1-.21-1.64-.83,0-1.51.27-2.06.82-.55.54-1.1,1.09-1.65,1.64,1.37-.55,2.27-.48,2.68.2.41.68.75,1.57,1.03,2.66ZM319.28,203.34c-2.2.55-2.89,1.51-2.06,2.87-.55,0-.83.14-.83.41.83-.27,1.58-.75,2.27-1.43.68-.68.89-1.29.62-1.84ZM321.35,190.22c1.1-2.18,1.24-3.21.41-3.07-.83.14-.97,1.17-.41,3.07ZM384.06,227.52c-.28-.27-.97-.27-2.06,0-1.1.28-2.2.69-3.3,1.23-1.38.55-2.41,1.23-3.09,2.05-.69.82-1.31,1.51-1.86,2.05,2.2-1.09,3.98-2.05,5.36-2.87,1.37-.82,3.02-1.64,4.95-2.46ZM410.88,286.15c-.55,0-.97.2-1.24.61-.28.41-.69.89-1.24,1.43.27.28.68.14,1.24-.41s.96-1.09,1.24-1.64ZM414.59,211.13c-1.38,0-2.48.35-3.3,1.02-.83.69-1.65,1.3-2.48,1.84,1.65,0,2.82-.34,3.51-1.02.68-.68,1.44-1.29,2.27-1.84Z"/></g></svg>